<svg width="62" height="45" viewBox="0 0 62 45" fill="none" xmlns="http://www.w3.org/2000/svg">
<path d="M29.3725 23.3877C28.9983 23.9956 28.4273 24.818 27.6133 25.6949C26.919 26.4353 26.051 27.2031 25.048 27.9358C24.9863 27.7838 24.9245 27.6903 24.9245 27.6903C22.3514 23.2435 13.9031 24.1126 10.7783 24.6036C12.9734 23.8047 17.9228 21.9106 22.3784 19.4085C25.2409 20.4569 27.7869 21.7625 29.3725 23.3877Z" fill="url(#paint0_linear_496_2098)"/>
<path d="M31.0777 27.1174C31.0777 35.6564 9.60569 41.3971 9.60569 41.3971V44.133L0 37.5154L9.60569 30.9055V33.544C14.5628 33.0296 18.0078 31.4823 20.3455 30.5431C20.5731 30.4496 20.8008 30.3599 21.0245 30.2586C21.2058 30.1806 21.391 30.1066 21.5646 30.0131C21.7227 29.9351 21.8771 29.8611 22.0275 29.7831C22.0738 29.7675 22.1201 29.7442 22.1664 29.7052C23.2041 29.1829 24.1762 28.575 25.0442 27.9358C26.0511 27.2031 26.9191 26.4353 27.6096 25.6949C28.4236 24.818 28.9945 23.9956 29.3687 23.3877C30.4412 24.4867 31.0738 25.726 31.0738 27.1213L31.0777 27.1174Z" fill="url(#paint1_linear_496_2098)"/>
<path d="M29.4804 6.71504C29.1139 7.3464 28.5121 8.24668 27.6132 9.20931C26.3633 10.5344 24.5502 11.9647 22.4323 13.0871C24.3226 12.0387 25.1675 11.4619 25.1675 11.4619C24.3303 8.58574 19.7319 7.75562 15.7508 7.74003C12.4717 7.72834 9.60547 8.32073 9.60547 8.32073V1.89019C11.38 1.67194 17.6642 1.40303 22.332 2.58391C26.2823 3.58162 28.7744 5.96676 29.4804 6.71504Z" fill="url(#paint2_linear_496_2098)"/>
<path d="M31.0775 10.3317C31.0775 13.6249 26.9883 16.8363 22.3783 19.4046C17.9227 21.9067 12.9694 23.8008 10.7782 24.5997H10.7628C10.0375 24.7166 9.60547 24.8063 9.60547 24.8063V16.4427C9.74435 16.4271 9.87937 16.4115 10.0182 16.3959C14.7555 15.8737 18.0693 14.9656 20.3492 14.0497C20.7465 13.8977 21.1323 13.7263 21.5142 13.5509C21.6724 13.4729 21.8344 13.3989 21.9848 13.321C22.1353 13.2508 22.2896 13.169 22.4362 13.091C22.5596 13.0287 22.6715 12.9585 22.795 12.8922C24.7585 11.8088 26.4366 10.4603 27.6171 9.2132C28.5159 8.25057 29.1177 7.35029 29.4842 6.71893C30.4911 7.78679 31.0852 8.99106 31.0852 10.3356L31.0775 10.3317Z" fill="url(#paint3_linear_496_2098)"/>
<path d="M50.2699 20.4413C50.2699 20.4413 49.4868 22.9356 46.065 25.7143C44.3059 19.7125 31.5986 22.7056 31.5986 22.7056V22.6978C31.5986 22.6978 31.6141 22.6667 31.6604 22.5965C32.0114 22.0275 33.9673 19.0422 38.2879 16.1855C38.2879 16.1855 38.2956 16.1777 38.3033 16.1777C38.3959 16.1387 38.4538 16.1231 38.4615 16.1153C40.4559 16.1933 46.7556 16.583 50.2699 20.4413Z" fill="url(#paint4_linear_496_2098)"/>
<path d="M29.9355 41.7907V32.1644C38.1177 30.7652 43.0826 28.1307 46.0608 25.7066C49.4825 22.9278 50.2657 20.4335 50.2657 20.4335C58.8259 31.1082 29.9355 41.7907 29.9355 41.7907Z" fill="url(#paint5_linear_496_2098)"/>
<path d="M51.6936 13.1884V11.1735C51.6936 11.1735 51.6087 11.1891 51.4505 11.2203C51.3965 11.2281 51.3271 11.2437 51.2538 11.2593C48.6267 11.6919 46.3044 12.3505 44.2675 13.1378C44.2366 13.1456 44.2135 13.1612 44.1826 13.169C42.3078 13.8237 40.4947 14.6149 39.2988 15.5463C38.9554 15.7529 38.6198 15.9633 38.2996 16.1777C38.2919 16.1777 38.2842 16.1855 38.2842 16.1855C33.9636 19.0422 32.0077 22.0275 31.6567 22.5965C31.6104 22.6667 31.5949 22.6978 31.5949 22.6978C23.0655 12.1128 51.6936 1.88629 51.6936 1.88629V0L61.2761 6.59422L51.6936 13.1884Z" fill="url(#paint6_linear_496_2098)"/>
<defs>
<linearGradient id="paint0_linear_496_2098" x1="24.1568" y1="29.3193" x2="14.6666" y2="17.1912" gradientUnits="userSpaceOnUse">
<stop offset="0.03" stop-color="#5B0C04"/>
<stop offset="1" stop-color="#C41A2B"/>
</linearGradient>
<linearGradient id="paint1_linear_496_2098" x1="3.54137" y1="42.6091" x2="30.0549" y2="24.184" gradientUnits="userSpaceOnUse">
<stop stop-color="#C01522"/>
<stop offset="1" stop-color="#ED0A21"/>
</linearGradient>
<linearGradient id="paint2_linear_496_2098" x1="29.9124" y1="13.0092" x2="9.58902" y2="1.79003" gradientUnits="userSpaceOnUse">
<stop offset="0.03" stop-color="#5B0C04"/>
<stop offset="1" stop-color="#C41A2B"/>
</linearGradient>
<linearGradient id="paint3_linear_496_2098" x1="9.17341" y1="22.2574" x2="29.2545" y2="9.86497" gradientUnits="userSpaceOnUse">
<stop stop-color="#C01522"/>
<stop offset="1" stop-color="#ED0A21"/>
</linearGradient>
<linearGradient id="paint4_linear_496_2098" x1="33.6741" y1="16.4739" x2="48.0302" y2="26.0307" gradientUnits="userSpaceOnUse">
<stop offset="0.03" stop-color="#5B0C04"/>
<stop offset="1" stop-color="#C41A2B"/>
</linearGradient>
<linearGradient id="paint5_linear_496_2098" x1="29.9355" y1="31.116" x2="51.855" y2="31.116" gradientUnits="userSpaceOnUse">
<stop stop-color="#C01522"/>
<stop offset="1" stop-color="#ED0A21"/>
</linearGradient>
<linearGradient id="paint6_linear_496_2098" x1="30.5032" y1="21.1584" x2="58.0808" y2="1.99522" gradientUnits="userSpaceOnUse">
<stop stop-color="#C01522"/>
<stop offset="1" stop-color="#ED0A21"/>
</linearGradient>
</defs>
</svg>
