<svg width="116" height="62" viewBox="0 0 116 62" fill="none" xmlns="http://www.w3.org/2000/svg">
<path d="M60.8163 2.56275C60.8163 0.726859 61.1061 0.417655 62.7874 0.417655C64.4494 0.417655 64.7586 0.630233 64.7586 2.56275V21.6946C64.7586 22.6223 65.2417 23.5305 66.3239 23.5305H79.9675C81.1463 23.5305 81.4362 22.5063 81.4362 21.6946V14.9502C81.4362 12.9983 81.7261 12.8051 83.4074 12.8051C85.0693 12.8051 85.3785 13.0177 85.3785 14.9502V21.6946C85.3785 22.6223 85.8617 23.5305 86.9439 23.5305H96.162C97.3408 23.5305 97.1476 22.5063 97.1476 21.6946V14.9502C97.1476 12.9983 97.9399 12.8051 99.6018 12.8051C101.264 12.8051 102.056 13.0177 102.056 14.9502V21.6946C102.056 22.6223 102.056 23.5305 103.235 23.5305H110.192C111.371 23.5305 111.854 22.5063 111.854 21.6946V14.9502C111.854 12.9983 112.144 12.8051 113.825 12.8051C115.506 12.8051 115.796 13.0177 115.796 14.9502V21.6946C115.796 25.7916 114.811 26.6032 110.888 26.6032H65.6669C61.7439 26.6032 60.8549 25.6756 60.8549 21.6946V2.56275H60.8163ZM31.8865 1.13268C32.8721 2.46612 32.8721 2.87195 31.4034 3.99281L21.0064 12.3799C20.7166 12.5925 20.6199 13.3075 21.2963 13.3075H36.0994C39.6359 13.3075 40.2156 13.7134 40.2156 17.1919V21.5787C40.2156 22.5063 40.6021 23.4146 41.6844 23.4146H50.9025C51.9847 23.4146 51.888 22.3904 51.888 21.5787V14.8342C51.888 12.8824 52.6804 12.6891 54.3423 12.6891C56.0043 12.6891 56.7966 12.9017 56.7966 14.8342V21.5787C56.7966 25.6756 55.5212 26.4873 51.5982 26.4873H0C0.289877 24.4388 2.55092 23.4146 5.48834 23.4146H34.8239C35.7129 23.4146 36.2926 22.7962 36.2926 21.8879V17.4818C36.2926 16.6701 35.9061 16.245 34.8239 16.245H18.5328C15.7886 16.245 14.9963 14.7183 14.9963 13.3848C14.9963 12.148 15.8853 11.1431 16.9675 10.3121L29.123 0.707532C30.611 -0.297376 30.9009 -0.297376 31.8865 1.13268ZM47.965 34.3719L46.9988 35.4928C45.8199 36.7296 44.7377 36.8262 43.7521 35.8986C42.7666 34.8744 42.8632 33.7535 44.042 32.5167L45.1242 31.3959C46.3031 30.1591 47.3853 30.0624 48.3709 30.99C49.2405 32.0143 49.1439 33.1351 47.965 34.3719Z" fill="black"/>
<path d="M48.6608 61.3692C51.2117 61.3692 52.004 60.5575 52.004 57.9873V56.4606C52.004 53.7937 51.3083 53.1946 48.6608 53.1946H40.2157C40.1191 53.1946 40.0224 53.1946 40.0224 53.098C40.0224 52.7888 43.6556 50.4311 50.4194 50.2379C51.5016 50.2379 51.6948 49.7354 51.5982 48.7112C51.5982 47.7836 51.3083 47.2811 50.0329 47.2811C41.008 47.2811 35.8096 51.9771 35.8096 54.4314C35.8096 55.5523 36.3893 56.2673 38.747 56.2673H47.6752C48.3709 56.2673 47.9651 56.2673 47.9651 56.7698V57.6974C47.9651 58.1998 48.255 58.3158 47.6752 58.3158H35.7129C33.5485 58.3158 31.8866 59.34 31.5967 61.3885H48.6608V61.3692ZM93.5918 43.5707L92.8961 44.2857C91.9105 45.31 91.1375 45.4066 90.3451 44.5949C89.5528 43.7833 89.6494 42.8557 90.635 41.9281L91.3307 41.1164C92.3163 40.1888 93.0893 39.9956 93.8816 40.8072C94.558 41.7348 94.4614 42.6431 93.5918 43.5707ZM55.5212 61.3692C54.3424 61.3692 53.3568 60.9633 53.3568 59.2241C53.3568 52.0738 60.7197 47.2618 63.6571 47.2618C64.6427 47.2618 64.8359 47.9768 64.8359 48.9044V53.4072C64.8359 54.644 64.8359 55.0498 63.3672 55.0498C61.9951 55.0498 61.8985 54.644 61.8985 53.4072V51.0495C61.8985 50.9529 61.9951 50.9529 61.9951 50.9529C60.8163 50.9529 56.6034 54.7406 56.6034 57.8133C56.6034 58.1225 56.7001 58.3158 57.4924 58.3158H66.1307C66.8264 58.3158 66.8264 58.1032 66.8264 57.5041V45.2327C66.8264 43.8026 67.5221 43.4934 68.7976 43.4934C70.0731 43.4934 70.7688 43.706 70.7688 45.2327V57.5041C70.7688 60.4609 69.4933 61.3885 66.6525 61.3885H55.5212V61.3692ZM76.1218 61.3692C73.281 61.3692 72.5853 60.4416 72.5853 57.4848V37.5413C72.5853 36.1112 72.7786 35.8986 74.054 35.8986C75.3295 35.8986 75.5228 36.1112 75.5228 37.5413V57.4848C75.5228 58.1032 75.9093 58.2965 76.605 58.2965H85.1467C85.939 58.2965 85.939 58.0839 85.939 57.794C85.939 56.364 83.9678 52.1704 77.9964 50.3345C76.9142 50.0253 76.8175 49.4069 77.204 48.3827C77.5905 47.2618 78.2863 47.2618 79.1752 47.4551C86.2289 49.6002 89.2823 54.5087 89.2823 59.2241C89.2823 60.9633 88.2967 61.3692 87.1178 61.3692H76.1218ZM91.2341 59.3207V50.6244C91.2341 50.4118 91.4273 50.1219 91.1375 50.1219H90.5577C89.2823 50.1219 88.8958 49.7161 88.8958 48.5952C88.8958 47.4744 89.2823 47.0686 90.5577 47.0686H93.1859C94.0749 47.0686 94.2682 47.7836 94.2682 48.8078V59.6492C94.2682 61.0793 93.9783 61.3885 92.7994 61.3885C91.6206 61.3885 91.2341 61.1759 91.2341 59.6492V59.3207ZM96.5292 59.2241C96.5292 54.0063 100.839 47.2618 109.574 47.2618C110.559 47.2618 110.753 47.9768 110.753 48.9044V53.4072C110.753 54.644 110.656 55.0498 109.284 55.0498C107.912 55.0498 107.815 54.644 107.815 53.4072V51.0495C107.815 50.6437 107.815 50.5471 107.622 50.5471C102.907 50.5471 99.5826 55.5523 99.5826 57.8133C99.5826 58.1225 99.6792 58.3158 100.472 58.3158H111.854C114.018 58.3158 115.68 59.34 115.97 61.3885H98.7902C97.5148 61.3692 96.5292 60.9633 96.5292 59.2241Z" fill="black"/>
</svg>
