<svg width="11" height="7" viewBox="0 0 11 7" fill="none" xmlns="http://www.w3.org/2000/svg">
<path d="M5.92548 0.515851L10.7827 5.37312C10.8951 5.48546 10.957 5.63543 10.957 5.79533C10.957 5.95524 10.8951 6.10521 10.7827 6.21755L10.425 6.57525C10.192 6.80801 9.81328 6.80801 9.58061 6.57525L5.50185 2.49649L1.41856 6.57978C1.30613 6.69212 1.15625 6.75415 0.996429 6.75415C0.836434 6.75415 0.686555 6.69212 0.574035 6.57978L0.216508 6.22208C0.104077 6.10964 0.0421381 5.95976 0.0421381 5.79986C0.0421381 5.63995 0.104077 5.48998 0.216508 5.37764L5.07812 0.515851C5.19091 0.403242 5.3415 0.341391 5.50158 0.341746C5.66229 0.341391 5.81279 0.403242 5.92548 0.515851Z" fill="#3A3C40"/>
</svg>
