<svg width="62" height="60" viewBox="0 0 62 60" fill="none" xmlns="http://www.w3.org/2000/svg">
<path d="M59.9309 2H27.1035V29.0343L36.7586 21.3102H59.9309V2Z" stroke="#C41A2B" stroke-width="3" stroke-linecap="round" stroke-linejoin="round"/>
<path d="M48.3458 40.6201C51.5452 40.6201 54.1389 38.0264 54.1389 34.827C54.1389 31.6276 51.5452 29.0339 48.3458 29.0339C45.1464 29.0339 42.5527 31.6276 42.5527 34.827C42.5527 38.0264 45.1464 40.6201 48.3458 40.6201Z" stroke="#C41A2B" stroke-width="3" stroke-linecap="round" stroke-linejoin="round"/>
<path d="M13.586 40.6201C16.7855 40.6201 19.3791 38.0264 19.3791 34.827C19.3791 31.6276 16.7855 29.0339 13.586 29.0339C10.3866 29.0339 7.79297 31.6276 7.79297 34.827C7.79297 38.0264 10.3866 40.6201 13.586 40.6201Z" stroke="#C41A2B" stroke-width="3" stroke-linecap="round" stroke-linejoin="round"/>
<path d="M25.1723 58.0002V52.24C25.1723 50.8689 24.4539 49.608 23.2741 48.9089C21.3952 47.7986 18.1395 46.4141 13.5861 46.4141C8.97486 46.4141 5.73846 47.7909 3.88082 48.9012C2.71062 49.6003 2 50.8573 2 52.2207V58.0002H25.1723Z" stroke="#C41A2B" stroke-width="3" stroke-linecap="round" stroke-linejoin="round"/>
<path d="M59.9311 58.0002V52.24C59.9311 50.8689 59.2127 49.608 58.0329 48.9089C56.154 47.7986 52.8983 46.4141 48.3449 46.4141C43.7336 46.4141 40.4973 47.7909 38.6396 48.9012C37.4694 49.6003 36.7588 50.8573 36.7588 52.2207V58.0002H59.9311Z" stroke="#C41A2B" stroke-width="3" stroke-linecap="round" stroke-linejoin="round"/>
</svg>
