<svg width="23" height="19" viewBox="0 0 23 19" fill="none" xmlns="http://www.w3.org/2000/svg">
<path d="M22.8026 13.9307L21.0211 12.0886V5.77019L22.1842 5.33664C22.4512 5.23706 22.6292 4.97526 22.6295 4.68174C22.6297 4.3883 22.452 4.12613 22.1851 4.02623L11.5441 0.0416253C11.3959 -0.0138751 11.2335 -0.0138751 11.0853 0.0416253L0.444373 4.02623C0.178506 4.1258 0.00108217 4.38635 4.14973e-06 4.67872C-0.000984036 4.97108 0.174599 5.23298 0.439702 5.33455L4.3668 6.83873V11.43C4.3668 11.5725 4.40902 11.7116 4.48785 11.8284C4.5312 11.8927 4.94179 12.4725 5.99304 13.0196C7.32111 13.7108 9.06301 14.0613 11.1703 14.0613C13.276 14.0613 15.0267 13.7116 16.3737 13.0217C17.4354 12.4779 17.8596 11.9042 17.9045 11.8406C17.9886 11.7214 18.0339 11.5777 18.0339 11.4301V6.88368L19.6737 6.27244V12.0886L17.8921 13.9307C17.7658 14.0613 17.6948 14.2385 17.6948 14.4232C17.6948 14.608 17.7657 14.7852 17.8921 14.9158L19.6737 16.7578V18.3033C19.6737 18.6881 19.9753 19 20.3474 19C20.7195 19 21.0212 18.6881 21.0212 18.3033V16.7578L22.8027 14.9158C23.0658 14.6438 23.0658 14.2027 22.8026 13.9307ZM11.3147 1.43759L19.9731 4.67979L11.1735 7.96007L2.63267 4.68866L11.3147 1.43759ZM16.6864 11.1523C14.383 13.2954 7.5386 13.0496 5.71432 11.1593V7.3549L10.9362 9.35505C11.0191 9.36862 11.0973 9.44251 11.3988 9.35719L16.6864 7.38611L16.6864 11.1523ZM20.3474 15.4841L19.3213 14.4232L20.3474 13.3623L21.3734 14.4232L20.3474 15.4841Z" fill="white"/>
</svg>
