<svg width="32" height="32" viewBox="0 0 32 32" fill="none" xmlns="http://www.w3.org/2000/svg">
<g clip-path="url(#clip0_236_3651)">
<path d="M23 30L15.944 31L9 30V19L15.944 20L23 19V30Z" stroke="white" stroke-width="2" stroke-linecap="round" stroke-linejoin="round"/>
<path d="M15.9441 11C14.618 11 13.3462 10.4732 12.4086 9.53553C11.4709 8.59785 10.9441 7.32608 10.9441 6V6C10.9441 4.67392 11.4709 3.40215 12.4086 2.46447C13.3462 1.52678 14.618 1 15.9441 1V1C16.6007 1 17.2509 1.12933 17.8575 1.3806C18.4641 1.63188 19.0153 2.00017 19.4796 2.46447C19.9439 2.92876 20.3122 3.47995 20.5635 4.08658C20.8148 4.69321 20.9441 5.34339 20.9441 6V6C20.9441 7.32608 20.4173 8.59785 19.4796 9.53553C18.5419 10.4732 17.2702 11 15.9441 11V11Z" stroke="white" stroke-width="2" stroke-linecap="round" stroke-linejoin="round"/>
<path d="M13.0001 25L3.02511 27.494C2.84208 27.5397 2.64986 27.5328 2.47063 27.4739C2.2914 27.415 2.13248 27.3066 2.01223 27.1613C1.89197 27.0159 1.81528 26.8395 1.79102 26.6524C1.76676 26.4654 1.79591 26.2752 1.87511 26.104L6.46411 16.162C6.6242 15.8151 6.88031 15.5213 7.20213 15.3154C7.52396 15.1094 7.89804 15 8.28011 15H23.7151C24.0983 14.9999 24.4735 15.11 24.796 15.3171C25.1185 15.5241 25.3747 15.8195 25.5341 16.168L30.0791 26.107C30.1575 26.2783 30.1859 26.4683 30.1611 26.6551C30.1362 26.8419 30.0591 27.0178 29.9386 27.1627C29.8181 27.3075 29.6591 27.4154 29.48 27.4738C29.3008 27.5323 29.1089 27.5389 28.9261 27.493L19.0001 25" stroke="white" stroke-width="2" stroke-linecap="round" stroke-linejoin="round"/>
</g>
<defs>
<clipPath id="clip0_236_3651">
<rect width="32" height="32" fill="white"/>
</clipPath>
</defs>
</svg>
