<svg width="19" height="20" viewBox="0 0 19 20" fill="none" xmlns="http://www.w3.org/2000/svg">
<path d="M0.791016 10.5768V15.3268C0.791016 15.7468 0.957831 16.1495 1.25476 16.4464C1.5517 16.7434 1.95442 16.9102 2.37435 16.9102H16.6243C17.0443 16.9102 17.447 16.7434 17.7439 16.4464C18.0409 16.1495 18.2077 15.7468 18.2077 15.3268V10.5768" stroke="white" stroke-width="1.2" stroke-linecap="round" stroke-linejoin="round"/>
<path d="M18.2077 6.61849V4.24349C18.2077 3.82356 18.0409 3.42084 17.7439 3.1239C17.447 2.82697 17.0443 2.66016 16.6243 2.66016H2.37435C1.95442 2.66016 1.5517 2.82697 1.25476 3.1239C0.957831 3.42084 0.791016 3.82356 0.791016 4.24349V6.61849L9.49935 11.3685L18.2077 6.61849Z" stroke="white" stroke-width="1.2" stroke-linecap="round" stroke-linejoin="round"/>
</svg>
