<svg width="24" height="24" viewBox="0 0 24 24" fill="none" xmlns="http://www.w3.org/2000/svg">
<g clip-path="url(#clip0_236_3453)">
<path d="M19 23C20.0609 23 21.0783 22.5786 21.8284 21.8284C22.5786 21.0783 23 20.0609 23 19C23 17.9391 22.5786 16.9217 21.8284 16.1716C21.0783 15.4214 20.0609 15 19 15H5C3.93913 15 2.92172 15.4214 2.17157 16.1716C1.42143 16.9217 1 17.9391 1 19C1 20.0609 1.42143 21.0783 2.17157 21.8284C2.92172 22.5786 3.93913 23 5 23H19Z" stroke="#007133" stroke-width="2" stroke-linecap="round" stroke-linejoin="round"/>
<path d="M6 19H5" stroke="#007133" stroke-width="2" stroke-linecap="round" stroke-linejoin="round"/>
<path d="M11 19H10" stroke="#007133" stroke-width="2" stroke-linecap="round" stroke-linejoin="round"/>
<path d="M16 15V7" stroke="#007133" stroke-width="2" stroke-linecap="round" stroke-linejoin="round"/>
<path d="M16 7C17.1046 7 18 6.10457 18 5C18 3.89543 17.1046 3 16 3C14.8954 3 14 3.89543 14 5C14 6.10457 14.8954 7 16 7Z" stroke="#007133" stroke-width="2" stroke-linecap="round" stroke-linejoin="round"/>
<path d="M11.464 8.53599C10.9995 8.07168 10.6311 7.52042 10.3798 6.91371C10.1284 6.307 9.99902 5.65671 9.99902 4.99999C9.99902 4.34327 10.1284 3.69298 10.3798 3.08627C10.6311 2.47955 10.9995 1.9283 11.464 1.46399" stroke="#007133" stroke-width="2" stroke-linecap="round" stroke-linejoin="round"/>
<path d="M20.5359 1.46399C21.0003 1.9283 21.3687 2.47955 21.6201 3.08627C21.8714 3.69298 22.0008 4.34327 22.0008 4.99999C22.0008 5.65671 21.8714 6.307 21.6201 6.91371C21.3687 7.52042 21.0003 8.07168 20.5359 8.53599" stroke="#007133" stroke-width="2" stroke-linecap="round" stroke-linejoin="round"/>
</g>
<defs>
<clipPath id="clip0_236_3453">
<rect width="24" height="24" fill="white"/>
</clipPath>
</defs>
</svg>
