<svg width="24" height="24" viewBox="0 0 24 24" fill="none" xmlns="http://www.w3.org/2000/svg">
<g clip-path="url(#clip0_236_3471)">
<path d="M7 5V8L10 11V23" stroke="#007133" stroke-width="2" stroke-linecap="round" stroke-linejoin="round"/>
<path d="M3 14V17L6 20V23" stroke="#007133" stroke-width="2" stroke-linecap="round" stroke-linejoin="round"/>
<path d="M21 14V17L18 20V23" stroke="#007133" stroke-width="2" stroke-linecap="round" stroke-linejoin="round"/>
<path d="M17 5V8L14 11V23" stroke="#007133" stroke-width="2" stroke-linecap="round" stroke-linejoin="round"/>
<path d="M3 14C4.10457 14 5 13.1046 5 12C5 10.8954 4.10457 10 3 10C1.89543 10 1 10.8954 1 12C1 13.1046 1.89543 14 3 14Z" stroke="#007133" stroke-width="2" stroke-linecap="round" stroke-linejoin="round"/>
<path d="M21 14C22.1046 14 23 13.1046 23 12C23 10.8954 22.1046 10 21 10C19.8954 10 19 10.8954 19 12C19 13.1046 19.8954 14 21 14Z" stroke="#007133" stroke-width="2" stroke-linecap="round" stroke-linejoin="round"/>
<path d="M7 5C8.10457 5 9 4.10457 9 3C9 1.89543 8.10457 1 7 1C5.89543 1 5 1.89543 5 3C5 4.10457 5.89543 5 7 5Z" stroke="#007133" stroke-width="2" stroke-linecap="round" stroke-linejoin="round"/>
<path d="M17 5C18.1046 5 19 4.10457 19 3C19 1.89543 18.1046 1 17 1C15.8954 1 15 1.89543 15 3C15 4.10457 15.8954 5 17 5Z" stroke="#007133" stroke-width="2" stroke-linecap="round" stroke-linejoin="round"/>
</g>
<defs>
<clipPath id="clip0_236_3471">
<rect width="24" height="24" fill="white"/>
</clipPath>
</defs>
</svg>
