<svg width="58" height="59" viewBox="0 0 58 59" fill="none" xmlns="http://www.w3.org/2000/svg">
<path d="M8.84473 11.9705C13.7079 18.4547 20.1921 20.9763 29.0178 20.9763C37.8436 20.9763 44.1477 18.4547 49.1909 11.9705" stroke="#C41A2B" stroke-width="3" stroke-linecap="round" stroke-linejoin="round"/>
<path d="M8.84473 47.9939C13.7079 41.5097 20.1921 38.988 29.0178 38.988C37.8436 38.988 44.1477 41.5097 49.1909 47.9939" stroke="#C41A2B" stroke-width="3" stroke-linecap="round" stroke-linejoin="round"/>
<path d="M29.0176 56.0351C38.5638 51.5322 43.4269 41.0854 43.4269 29.0175C43.4269 16.9497 38.5638 6.50292 29.0176 2" stroke="#C41A2B" stroke-width="3" stroke-linecap="round" stroke-linejoin="round"/>
<path d="M29.0168 56.9999C19.4706 52.497 14.6074 42.0502 14.6074 29.9824C14.6074 17.9146 19.4706 7.46777 29.0168 2.96484" stroke="#C41A2B" stroke-width="3" stroke-linecap="round" stroke-linejoin="round"/>
<path d="M29.0176 56.9999V54.4783V5.48648V2.96484" stroke="#C41A2B" stroke-width="3" stroke-linecap="round" stroke-linejoin="round"/>
<path d="M2 29.9824H56.0351" stroke="#C41A2B" stroke-width="3" stroke-linecap="round" stroke-linejoin="round"/>
<path d="M29.0175 56.9999C43.9389 56.9999 56.0351 44.9038 56.0351 29.9824C56.0351 15.061 43.9389 2.96484 29.0175 2.96484C14.0962 2.96484 2 15.061 2 29.9824C2 44.9038 14.0962 56.9999 29.0175 56.9999Z" stroke="#C41A2B" stroke-width="3" stroke-linecap="round" stroke-linejoin="round"/>
</svg>
