<svg width="23" height="18" viewBox="0 0 23 18" fill="none" xmlns="http://www.w3.org/2000/svg">
<path d="M21.386 8.35455H20.5177C20.9167 7.56146 21.1278 6.68029 21.1278 5.76663C21.1278 4.22633 20.5279 2.77819 19.4388 1.68902C18.3496 0.599839 16.9015 0 15.3612 0C13.8209 0 12.3727 0.599839 11.2836 1.68902L11.0157 1.95688L10.7478 1.68906C9.65866 0.599882 8.21057 4.30064e-05 6.67022 4.30064e-05C5.12987 4.30064e-05 3.68178 0.599882 2.59261 1.68902C1.50347 2.77819 0.903632 4.22633 0.903632 5.76663C0.903632 6.68025 1.11469 7.56146 1.51371 8.35455H0.645451C0.28899 8.35455 0 8.64354 0 9C0 9.35646 0.28899 9.64545 0.645451 9.64545H2.40306C2.46455 9.71292 2.52767 9.77927 2.59265 9.84425L10.5593 17.8109C10.6854 17.937 10.8506 18 11.0157 18C11.1809 18 11.3461 17.937 11.4721 17.8109L19.4388 9.84425C19.5037 9.77927 19.5669 9.71292 19.6283 9.64545H21.386C21.7424 9.64545 22.0314 9.35646 22.0314 9C22.0314 8.64354 21.7424 8.35455 21.386 8.35455ZM2.19453 5.76663C2.19453 4.57113 2.66008 3.44718 3.50545 2.60181C4.35077 1.75644 5.47472 1.2909 6.67022 1.2909C7.86573 1.2909 8.98967 1.75644 9.83504 2.60181L10.5593 3.32605C10.8113 3.57812 11.22 3.57812 11.4721 3.32605L12.1963 2.60181C13.0417 1.75644 14.1656 1.2909 15.3611 1.2909C16.5566 1.2909 17.6806 1.75644 18.526 2.60181C19.3713 3.44718 19.8369 4.57113 19.8369 5.76663C19.8369 6.70719 19.5485 7.60337 19.014 8.35455H15.6309L14.1858 6.07284C14.0647 5.88165 13.8526 5.76814 13.6262 5.77292C13.4 5.77795 13.1929 5.90106 13.0804 6.09745L10.9644 9.79206L8.2351 4.40529C8.12141 4.18089 7.88681 4.04263 7.63633 4.05197C7.38495 4.06092 7.16167 4.21514 7.06425 4.44707L5.42312 8.35455H3.01744C2.48288 7.60337 2.19453 6.70723 2.19453 5.76663ZM11.0157 16.4417L4.21944 9.64545H5.85209C6.11199 9.64545 6.34655 9.48955 6.4472 9.24996L7.71418 6.23334L10.3539 11.4432C10.4611 11.655 10.6759 11.7907 10.9132 11.7968C10.9187 11.7969 10.9242 11.797 10.9297 11.797C11.1606 11.797 11.3746 11.6734 11.4898 11.4723L13.6683 7.66848L14.7304 9.34545C14.8487 9.5322 15.0545 9.64545 15.2757 9.64545H17.812L11.0157 16.4417Z" fill="white"/>
</svg>
