<svg width="271" height="51" viewBox="0 0 271 51" fill="none" xmlns="http://www.w3.org/2000/svg">
<g clip-path="url(#clip0_583_899)">
<path d="M29.3725 23.3877C28.9983 23.9956 28.4273 24.818 27.6133 25.6949C26.919 26.4353 26.051 27.2031 25.048 27.9358C24.9863 27.7838 24.9245 27.6903 24.9245 27.6903C22.3514 23.2435 13.9031 24.1126 10.7783 24.6036C12.9734 23.8047 17.9228 21.9106 22.3784 19.4085C25.2409 20.4569 27.7869 21.7625 29.3725 23.3877Z" fill="url(#paint0_linear_583_899)"/>
<path d="M31.0777 27.1174C31.0777 35.6564 9.60569 41.3971 9.60569 41.3971V44.133L0 37.5154L9.60569 30.9055V33.544C14.5628 33.0296 18.0078 31.4823 20.3455 30.5431C20.5731 30.4496 20.8008 30.3599 21.0245 30.2586C21.2058 30.1806 21.391 30.1066 21.5646 30.0131C21.7227 29.9351 21.8771 29.8611 22.0275 29.7831C22.0738 29.7675 22.1201 29.7442 22.1664 29.7052C23.2041 29.1829 24.1762 28.575 25.0442 27.9358C26.0511 27.2031 26.9191 26.4353 27.6096 25.6949C28.4236 24.818 28.9945 23.9956 29.3687 23.3877C30.4412 24.4867 31.0738 25.726 31.0738 27.1213L31.0777 27.1174Z" fill="url(#paint1_linear_583_899)"/>
<path d="M29.4804 6.71503C29.1139 7.3464 28.5121 8.24667 27.6132 9.2093C26.3633 10.5344 24.5502 11.9647 22.4323 13.0871C24.3226 12.0387 25.1675 11.4619 25.1675 11.4619C24.3303 8.58574 19.7319 7.75561 15.7508 7.74002C12.4717 7.72833 9.60547 8.32072 9.60547 8.32072V1.89018C11.38 1.67193 17.6642 1.40302 22.332 2.5839C26.2823 3.58161 28.7744 5.96675 29.4804 6.71503Z" fill="url(#paint2_linear_583_899)"/>
<path d="M31.0775 10.3317C31.0775 13.6249 26.9883 16.8363 22.3783 19.4046C17.9227 21.9067 12.9694 23.8008 10.7782 24.5997H10.7628C10.0375 24.7166 9.60547 24.8063 9.60547 24.8063V16.4427C9.74435 16.4271 9.87937 16.4115 10.0182 16.3959C14.7555 15.8737 18.0693 14.9656 20.3492 14.0497C20.7465 13.8977 21.1323 13.7263 21.5142 13.5509C21.6724 13.4729 21.8344 13.3989 21.9848 13.321C22.1353 13.2508 22.2896 13.169 22.4362 13.091C22.5596 13.0287 22.6715 12.9585 22.795 12.8922C24.7585 11.8088 26.4366 10.4603 27.6171 9.2132C28.5159 8.25057 29.1177 7.35029 29.4842 6.71893C30.4911 7.78679 31.0852 8.99106 31.0852 10.3356L31.0775 10.3317Z" fill="url(#paint3_linear_583_899)"/>
<path d="M50.2699 20.4413C50.2699 20.4413 49.4868 22.9356 46.065 25.7143C44.3059 19.7125 31.5986 22.7056 31.5986 22.7056V22.6978C31.5986 22.6978 31.6141 22.6667 31.6604 22.5965C32.0114 22.0275 33.9673 19.0422 38.2879 16.1855C38.2879 16.1855 38.2956 16.1777 38.3033 16.1777C38.3959 16.1387 38.4538 16.1231 38.4615 16.1153C40.4559 16.1933 46.7556 16.583 50.2699 20.4413Z" fill="url(#paint4_linear_583_899)"/>
<path d="M29.9355 41.7907V32.1644C38.1177 30.7652 43.0826 28.1307 46.0608 25.7065C49.4825 22.9278 50.2657 20.4335 50.2657 20.4335C58.8259 31.1082 29.9355 41.7907 29.9355 41.7907Z" fill="url(#paint5_linear_583_899)"/>
<path d="M51.6936 13.1884V11.1735C51.6936 11.1735 51.6087 11.1891 51.4505 11.2203C51.3965 11.2281 51.3271 11.2437 51.2538 11.2593C48.6267 11.6919 46.3044 12.3505 44.2675 13.1378C44.2366 13.1456 44.2135 13.1612 44.1826 13.169C42.3078 13.8237 40.4947 14.6149 39.2988 15.5463C38.9554 15.7529 38.6198 15.9633 38.2996 16.1777C38.2919 16.1777 38.2842 16.1855 38.2842 16.1855C33.9636 19.0422 32.0077 22.0275 31.6567 22.5965C31.6104 22.6667 31.5949 22.6978 31.5949 22.6978C23.0655 12.1128 51.6936 1.88629 51.6936 1.88629V0L61.2761 6.59422L51.6936 13.1884Z" fill="url(#paint6_linear_583_899)"/>
<path d="M90.5556 12.9663V11.6763C90.5556 11.4074 90.6058 11.1541 90.7099 10.9163C90.8141 10.6786 90.9491 10.472 91.1227 10.2966C91.2963 10.1213 91.4969 9.98486 91.7284 9.88743C91.9598 9.79 92.2067 9.73933 92.4729 9.73933H95.2967C95.5629 9.73933 95.8137 9.79 96.049 9.88743C96.2843 9.98486 96.4888 10.1213 96.6624 10.2966C96.836 10.472 96.971 10.6786 97.0674 10.9163C97.1639 11.1541 97.214 11.4074 97.214 11.6763V12.9663H95.7481V11.8906C95.7481 11.7036 95.6825 11.5438 95.5552 11.4113C95.4279 11.2827 95.2697 11.2164 95.0807 11.2164H92.6851C92.4999 11.2164 92.3417 11.2827 92.2106 11.4113C92.0794 11.5399 92.0177 11.6997 92.0177 11.8906V12.8728C92.0177 13.0715 92.1141 13.2001 92.3109 13.2625L96.0143 14.3109C96.3692 14.4083 96.6585 14.611 96.8784 14.911C97.1021 15.2111 97.2102 15.5502 97.2102 15.9282V17.2182C97.2102 17.4872 97.16 17.7405 97.0636 17.9704C96.9671 18.2043 96.8321 18.4069 96.6585 18.5823C96.4849 18.7577 96.2805 18.898 96.0451 18.9993C95.8098 19.1045 95.5591 19.1552 95.2929 19.1552H92.469C92.2029 19.1552 91.9521 19.1045 91.7245 18.9993C91.493 18.898 91.2924 18.7577 91.1188 18.5823C90.9452 18.4069 90.8064 18.2043 90.7061 17.9704C90.6058 17.7366 90.5518 17.4872 90.5518 17.2182V15.9282H92.0177V17.0039C92.0177 17.191 92.0833 17.3507 92.2106 17.4794C92.3379 17.608 92.496 17.6742 92.6851 17.6742H95.0807C95.2659 17.6742 95.424 17.608 95.5552 17.4794C95.6864 17.3507 95.7481 17.191 95.7481 17.0039V16.0218C95.7481 15.823 95.6516 15.6944 95.4549 15.632L91.7515 14.5837C91.3966 14.4745 91.1073 14.2758 90.8874 13.9796C90.6636 13.6834 90.5556 13.3482 90.5556 12.9702V12.9663Z" fill="black"/>
<path d="M98.333 11.7581H99.8915L101.755 17.1793L103.633 11.7581H105.192L102.048 20.492C101.897 20.8973 101.651 21.2247 101.303 21.4741C100.956 21.7235 100.567 21.8521 100.131 21.8521H98.7843V20.5076H99.9416C100.111 20.5076 100.262 20.4569 100.393 20.3595C100.528 20.262 100.624 20.1334 100.686 19.9814L100.979 19.1474L98.3291 11.762L98.333 11.7581Z" fill="black"/>
<path d="M106.018 13.6951C106.018 13.4262 106.068 13.1729 106.172 12.9351C106.276 12.6974 106.411 12.4908 106.585 12.3154C106.758 12.1401 106.959 12.0037 107.19 11.9062C107.422 11.8088 107.669 11.7581 107.935 11.7581H111.345V13.169H108.151C107.966 13.169 107.808 13.2352 107.676 13.3638C107.549 13.4924 107.484 13.6522 107.484 13.8432V14.2485C107.484 14.3459 107.518 14.4356 107.584 14.5096C107.649 14.5876 107.734 14.6343 107.831 14.6499L110.307 14.9734C110.493 15.0007 110.666 15.0552 110.828 15.141C110.986 15.2267 111.125 15.3358 111.241 15.4723C111.357 15.6087 111.449 15.7607 111.515 15.9282C111.58 16.0958 111.615 16.279 111.615 16.4661V17.2182C111.615 17.4872 111.565 17.7405 111.469 17.9704C111.372 18.2043 111.237 18.4069 111.063 18.5823C110.89 18.7577 110.685 18.898 110.45 18.9993C110.215 19.1045 109.964 19.1552 109.698 19.1552H106.021V17.7405H109.486C109.671 17.7405 109.829 17.6742 109.96 17.5456C110.087 17.417 110.153 17.2572 110.153 17.0701V16.6648C110.153 16.5674 110.118 16.4778 110.053 16.4037C109.987 16.3297 109.902 16.279 109.806 16.2634L107.329 15.9399C107.144 15.9126 106.97 15.8581 106.808 15.7723C106.646 15.6866 106.511 15.5775 106.396 15.4411C106.28 15.3047 106.187 15.1527 106.122 14.9851C106.056 14.8136 106.021 14.6343 106.021 14.4473V13.6951H106.018Z" fill="black"/>
<path d="M112.355 13.2352V11.7542H113.486V9.73544H114.952V11.7542H117.016V13.2352H114.952V17.0039C114.952 17.191 115.017 17.3508 115.145 17.4794C115.272 17.608 115.43 17.6742 115.619 17.6742H117.151V19.1552H115.407C115.141 19.1552 114.89 19.1045 114.662 18.9993C114.431 18.898 114.23 18.7577 114.057 18.5823C113.883 18.4069 113.744 18.2043 113.644 17.9704C113.544 17.7366 113.49 17.4872 113.49 17.2182V13.2352H112.359H112.355Z" fill="black"/>
<path d="M118.296 13.6951C118.296 13.4262 118.346 13.1729 118.45 12.9351C118.554 12.6974 118.689 12.4908 118.863 12.3154C119.037 12.1401 119.237 12.0037 119.469 11.9062C119.7 11.8088 119.947 11.7581 120.213 11.7581H122.37C122.636 11.7581 122.887 11.8088 123.122 11.9062C123.357 12.0037 123.562 12.1401 123.735 12.3154C123.909 12.4908 124.044 12.6974 124.14 12.9351C124.237 13.1729 124.287 13.4262 124.287 13.6951V16.1309H119.758V17.1403C119.758 17.3274 119.824 17.4872 119.951 17.6158C120.078 17.7444 120.236 17.8106 120.425 17.8106H124.021V19.1552H120.213C119.947 19.1552 119.696 19.1045 119.469 18.9993C119.237 18.898 119.037 18.7577 118.863 18.5823C118.689 18.4069 118.551 18.2043 118.45 17.9704C118.35 17.7366 118.296 17.4872 118.296 17.2182V13.6912V13.6951ZM122.825 14.7863V13.7769C122.825 13.5899 122.759 13.4301 122.632 13.2976C122.505 13.169 122.346 13.1027 122.157 13.1027H120.425C120.24 13.1027 120.082 13.169 119.951 13.2976C119.824 13.4262 119.758 13.586 119.758 13.7769V14.7863H122.821H122.825Z" fill="black"/>
<path d="M125.753 19.1552V11.7581H127.084L127.219 12.5103C127.396 12.2765 127.616 12.0933 127.879 11.9569C128.141 11.8205 128.426 11.7542 128.739 11.7542H129.429C129.811 11.7542 130.155 11.8556 130.455 12.0582C130.756 12.2609 130.988 12.5181 131.15 12.8338C131.308 12.5181 131.543 12.2609 131.848 12.0582C132.153 11.8556 132.492 11.7542 132.867 11.7542H133.561C133.827 11.7542 134.078 11.8049 134.313 11.9023C134.549 11.9998 134.753 12.1362 134.927 12.3116C135.1 12.4869 135.235 12.6935 135.332 12.9312C135.428 13.169 135.478 13.4223 135.478 13.6912V19.1552H134.012V13.9094C134.012 13.7224 133.947 13.5626 133.819 13.4301C133.692 13.2976 133.534 13.2352 133.349 13.2352H132.018C131.833 13.2352 131.675 13.3015 131.547 13.4301C131.42 13.5587 131.354 13.7185 131.354 13.9094V19.1552H129.888V13.9094C129.888 13.7224 129.823 13.5626 129.696 13.4301C129.568 13.3015 129.41 13.2352 129.221 13.2352H127.89C127.705 13.2352 127.547 13.3015 127.416 13.4301C127.288 13.5587 127.223 13.7185 127.223 13.9094V19.1552H125.757H125.753Z" fill="black"/>
<path d="M140.393 12.9663V11.6763C140.393 11.4074 140.444 11.1541 140.548 10.9163C140.652 10.6786 140.787 10.472 140.961 10.2966C141.134 10.1213 141.335 9.98486 141.566 9.88743C141.798 9.79 142.045 9.73933 142.311 9.73933H145.135C145.401 9.73933 145.652 9.79 145.887 9.88743C146.122 9.98486 146.327 10.1213 146.5 10.2966C146.674 10.472 146.809 10.6786 146.905 10.9163C147.002 11.1541 147.052 11.4074 147.052 11.6763V12.9663H145.586V11.8906C145.586 11.7036 145.52 11.5438 145.393 11.4113C145.266 11.2827 145.108 11.2164 144.919 11.2164H142.523C142.338 11.2164 142.18 11.2827 142.048 11.4113C141.917 11.5399 141.856 11.6997 141.856 11.8906V12.8728C141.856 13.0715 141.952 13.2001 142.149 13.2625L145.852 14.3109C146.207 14.4083 146.496 14.611 146.716 14.911C146.94 15.2111 147.048 15.5502 147.048 15.9282V17.2182C147.048 17.4872 146.998 17.7405 146.901 17.9704C146.805 18.2043 146.67 18.4069 146.496 18.5823C146.323 18.7577 146.118 18.898 145.883 18.9993C145.648 19.1045 145.397 19.1552 145.131 19.1552H142.307C142.041 19.1552 141.79 19.1045 141.562 18.9993C141.331 18.898 141.13 18.7577 140.957 18.5823C140.783 18.4069 140.644 18.2043 140.544 17.9704C140.444 17.7366 140.39 17.4872 140.39 17.2182V15.9282H141.856V17.0039C141.856 17.191 141.921 17.3507 142.048 17.4794C142.176 17.608 142.334 17.6742 142.523 17.6742H144.919C145.104 17.6742 145.262 17.608 145.393 17.4794C145.524 17.3507 145.586 17.191 145.586 17.0039V16.0218C145.586 15.823 145.49 15.6944 145.293 15.632L141.589 14.5837C141.234 14.4745 140.945 14.2758 140.725 13.9796C140.502 13.6834 140.393 13.3482 140.393 12.9702V12.9663Z" fill="black"/>
<path d="M148.583 13.6951C148.583 13.4262 148.633 13.1729 148.737 12.9351C148.841 12.6974 148.976 12.4908 149.15 12.3154C149.324 12.1401 149.524 12.0037 149.756 11.9062C149.987 11.8088 150.234 11.7581 150.5 11.7581H152.657C152.923 11.7581 153.174 11.8088 153.409 11.9062C153.644 12.0037 153.849 12.1401 154.022 12.3154C154.196 12.4908 154.331 12.6974 154.427 12.9351C154.524 13.1729 154.574 13.4262 154.574 13.6951V16.1309H150.045V17.1403C150.045 17.3274 150.111 17.4872 150.238 17.6158C150.365 17.7444 150.523 17.8106 150.712 17.8106H154.308V19.1552H150.5C150.234 19.1552 149.983 19.1045 149.756 18.9993C149.524 18.898 149.324 18.7577 149.15 18.5823C148.976 18.4069 148.838 18.2043 148.737 17.9704C148.637 17.7366 148.583 17.4872 148.583 17.2182V13.6912V13.6951ZM153.112 14.7863V13.7769C153.112 13.5899 153.046 13.4301 152.919 13.2976C152.792 13.169 152.634 13.1027 152.445 13.1027H150.712C150.527 13.1027 150.369 13.169 150.238 13.2976C150.111 13.4262 150.045 13.586 150.045 13.7769V14.7863H153.108H153.112Z" fill="black"/>
<path d="M155.909 17.2182V13.6912C155.909 13.4223 155.959 13.169 156.063 12.9312C156.168 12.6935 156.303 12.4869 156.476 12.3116C156.65 12.1362 156.85 11.9998 157.082 11.9023C157.313 11.8049 157.56 11.7542 157.826 11.7542H160.743V13.2352H158.039C157.853 13.2352 157.695 13.3015 157.564 13.4301C157.437 13.5587 157.371 13.7185 157.371 13.9094V17.0039C157.371 17.191 157.437 17.3508 157.564 17.4794C157.691 17.608 157.85 17.6742 158.039 17.6742H160.743V19.1552H157.826C157.56 19.1552 157.31 19.1045 157.082 18.9993C156.85 18.898 156.65 18.7577 156.476 18.5823C156.303 18.4069 156.164 18.2043 156.063 17.9704C155.963 17.7366 155.909 17.4872 155.909 17.2182Z" fill="black"/>
<path d="M161.938 17.2182V11.7542H163.404V17C163.404 17.1871 163.47 17.3469 163.597 17.4755C163.725 17.6041 163.883 17.6703 164.072 17.6703H165.804C165.989 17.6703 166.147 17.6041 166.278 17.4755C166.41 17.3469 166.471 17.1871 166.471 17V11.7542H167.937V19.1552H166.606L166.471 18.403C166.294 18.6369 166.074 18.82 165.812 18.9564C165.549 19.0928 165.264 19.1591 164.951 19.1591H163.86C163.593 19.1591 163.343 19.1084 163.115 19.0032C162.884 18.9019 162.683 18.7616 162.509 18.5862C162.336 18.4108 162.197 18.2082 162.097 17.9743C161.996 17.7405 161.942 17.4911 161.942 17.2221L161.938 17.2182Z" fill="black"/>
<path d="M169.6 19.1552V11.7581H170.931L171.066 12.5103C171.243 12.2765 171.463 12.0933 171.725 11.9569C171.988 11.8205 172.273 11.7542 172.585 11.7542H173.569V13.2352H171.733C171.548 13.2352 171.39 13.3015 171.258 13.4301C171.131 13.5587 171.066 13.7185 171.066 13.9094V19.1552H169.6Z" fill="black"/>
<path d="M174.673 10.5461V9.06511H176.139V10.5461H174.673ZM174.673 19.1591V11.7581H176.139V19.1591H174.673Z" fill="black"/>
<path d="M177.242 13.2352V11.7542H178.372V9.73544H179.838V11.7542H181.902V13.2352H179.838V17.0039C179.838 17.191 179.904 17.3508 180.031 17.4794C180.159 17.608 180.317 17.6742 180.506 17.6742H182.037V19.1552H180.294C180.027 19.1552 179.777 19.1045 179.549 18.9993C179.318 18.898 179.117 18.7577 178.943 18.5823C178.77 18.4069 178.631 18.2043 178.531 17.9704C178.43 17.7366 178.376 17.4872 178.376 17.2182V13.2352H177.246H177.242Z" fill="black"/>
<path d="M182.77 11.7581H184.329L186.192 17.1793L188.071 11.7581H189.629L186.485 20.492C186.335 20.8973 186.088 21.2247 185.741 21.4741C185.394 21.7235 185.004 21.8521 184.568 21.8521H183.222V20.5076H184.379C184.549 20.5076 184.699 20.4569 184.83 20.3595C184.965 20.262 185.062 20.1334 185.124 19.9814L185.417 19.1474L182.767 11.762L182.77 11.7581Z" fill="black"/>
<path d="M194.05 12.9663V11.6763C194.05 11.4074 194.1 11.1541 194.204 10.9163C194.308 10.6786 194.443 10.472 194.617 10.2966C194.79 10.1213 194.991 9.98486 195.222 9.88743C195.454 9.79 195.701 9.73933 195.967 9.73933H198.791C199.057 9.73933 199.308 9.79 199.543 9.88743C199.778 9.98486 199.983 10.1213 200.156 10.2966C200.33 10.472 200.465 10.6786 200.562 10.9163C200.658 11.1541 200.708 11.4074 200.708 11.6763V12.9663H199.242V11.8906C199.242 11.7036 199.177 11.5438 199.049 11.4113C198.922 11.2827 198.764 11.2164 198.575 11.2164H196.179C195.994 11.2164 195.836 11.2827 195.705 11.4113C195.574 11.5399 195.512 11.6997 195.512 11.8906V12.8728C195.512 13.0715 195.608 13.2001 195.805 13.2625L199.508 14.3109C199.863 14.4083 200.153 14.611 200.373 14.911C200.596 15.2111 200.704 15.5502 200.704 15.9282V17.2182C200.704 17.4872 200.654 17.7405 200.558 17.9704C200.461 18.2043 200.326 18.4069 200.153 18.5823C199.979 18.7577 199.775 18.898 199.539 18.9993C199.304 19.1045 199.053 19.1552 198.787 19.1552H195.963C195.697 19.1552 195.446 19.1045 195.219 18.9993C194.987 18.898 194.787 18.7577 194.613 18.5823C194.439 18.4069 194.301 18.2043 194.2 17.9704C194.1 17.7366 194.046 17.4872 194.046 17.2182V15.9282H195.512V17.0039C195.512 17.191 195.577 17.3507 195.705 17.4794C195.832 17.608 195.99 17.6742 196.179 17.6742H198.575C198.76 17.6742 198.918 17.608 199.049 17.4794C199.18 17.3507 199.242 17.191 199.242 17.0039V16.0218C199.242 15.823 199.146 15.6944 198.949 15.632L195.246 14.5837C194.891 14.4745 194.601 14.2758 194.382 13.9796C194.158 13.6834 194.05 13.3482 194.05 12.9702V12.9663Z" fill="black"/>
<path d="M202.24 13.6951C202.24 13.4262 202.29 13.1767 202.395 12.9429C202.499 12.7091 202.634 12.5064 202.807 12.331C202.981 12.1557 203.182 12.0154 203.413 11.914C203.644 11.8127 203.891 11.7581 204.158 11.7581H206.314C206.58 11.7581 206.831 11.8088 207.059 11.914C207.29 12.0154 207.491 12.1557 207.664 12.331C207.838 12.5064 207.977 12.7091 208.077 12.9429C208.177 13.1767 208.231 13.4262 208.231 13.6951V17.2221C208.231 17.4911 208.181 17.7444 208.077 17.9743C207.973 18.2082 207.838 18.4108 207.664 18.5862C207.491 18.7616 207.29 18.9019 207.059 19.0032C206.827 19.1084 206.58 19.1591 206.314 19.1591H204.158C203.891 19.1591 203.641 19.1084 203.413 19.0032C203.182 18.9019 202.981 18.7616 202.807 18.5862C202.634 18.4108 202.495 18.2082 202.395 17.9743C202.294 17.7405 202.24 17.4911 202.24 17.2221V13.6951ZM204.37 17.6781H206.102C206.287 17.6781 206.445 17.6119 206.576 17.4833C206.707 17.3546 206.769 17.1949 206.769 17.0078V13.9133C206.769 13.7263 206.704 13.5665 206.576 13.434C206.449 13.3054 206.291 13.2391 206.102 13.2391H204.37C204.185 13.2391 204.026 13.3054 203.895 13.434C203.768 13.5626 203.702 13.7224 203.702 13.9133V17.0078C203.702 17.1949 203.768 17.3546 203.895 17.4833C204.022 17.6119 204.181 17.6781 204.37 17.6781Z" fill="black"/>
<path d="M209.832 19.1552V9.06511H211.298V19.1552H209.832Z" fill="black"/>
<path d="M212.977 17.2182V11.7542H214.442V17C214.442 17.1871 214.508 17.3469 214.635 17.4755C214.763 17.6041 214.921 17.6703 215.11 17.6703H216.842C217.027 17.6703 217.185 17.6041 217.316 17.4755C217.448 17.3469 217.509 17.1871 217.509 17V11.7542H218.975V19.1552H217.644L217.509 18.403C217.332 18.6369 217.112 18.82 216.85 18.9564C216.587 19.0928 216.302 19.1591 215.989 19.1591H214.898C214.632 19.1591 214.381 19.1084 214.153 19.0032C213.922 18.9019 213.721 18.7616 213.547 18.5862C213.374 18.4108 213.235 18.2082 213.135 17.9743C213.034 17.7405 212.98 17.4911 212.98 17.2221L212.977 17.2182Z" fill="black"/>
<path d="M219.997 13.2352V11.7542H221.127V9.73544H222.593V11.7542H224.657V13.2352H222.593V17.0039C222.593 17.191 222.659 17.3508 222.786 17.4794C222.913 17.608 223.072 17.6742 223.261 17.6742H224.792V19.1552H223.049C222.782 19.1552 222.532 19.1045 222.304 18.9993C222.073 18.898 221.872 18.7577 221.698 18.5823C221.525 18.4069 221.386 18.2043 221.286 17.9704C221.185 17.7366 221.131 17.4872 221.131 17.2182V13.2352H220.001H219.997Z" fill="black"/>
<path d="M226.135 10.5461V9.06511H227.601V10.5461H226.135ZM226.135 19.1591V11.7581H227.601V19.1591H226.135Z" fill="black"/>
<path d="M229.213 13.6951C229.213 13.4262 229.263 13.1767 229.367 12.9429C229.471 12.7091 229.606 12.5064 229.78 12.331C229.954 12.1557 230.154 12.0154 230.386 11.914C230.617 11.8127 230.864 11.7581 231.13 11.7581H233.287C233.553 11.7581 233.804 11.8088 234.031 11.914C234.263 12.0154 234.463 12.1557 234.637 12.331C234.81 12.5064 234.949 12.7091 235.05 12.9429C235.15 13.1767 235.204 13.4262 235.204 13.6951V17.2221C235.204 17.4911 235.154 17.7444 235.05 17.9743C234.945 18.2082 234.81 18.4108 234.637 18.5862C234.463 18.7616 234.263 18.9019 234.031 19.0032C233.8 19.1084 233.553 19.1591 233.287 19.1591H231.13C230.864 19.1591 230.613 19.1084 230.386 19.0032C230.154 18.9019 229.954 18.7616 229.78 18.5862C229.606 18.4108 229.468 18.2082 229.367 17.9743C229.267 17.7405 229.213 17.4911 229.213 17.2221V13.6951ZM231.342 17.6781H233.074C233.26 17.6781 233.418 17.6119 233.549 17.4833C233.68 17.3546 233.742 17.1949 233.742 17.0078V13.9133C233.742 13.7263 233.676 13.5665 233.549 13.434C233.422 13.3054 233.263 13.2391 233.074 13.2391H231.342C231.157 13.2391 230.999 13.3054 230.868 13.434C230.741 13.5626 230.675 13.7224 230.675 13.9133V17.0078C230.675 17.1949 230.741 17.3546 230.868 17.4833C230.995 17.6119 231.153 17.6781 231.342 17.6781Z" fill="black"/>
<path d="M238.07 11.7581L238.205 12.5103C238.383 12.2765 238.602 12.0933 238.865 11.9569C239.127 11.8205 239.413 11.7542 239.725 11.7542H240.817C241.083 11.7542 241.334 11.8049 241.569 11.9023C241.804 11.9998 242.009 12.1362 242.182 12.3116C242.356 12.4869 242.491 12.6935 242.588 12.9312C242.684 13.169 242.734 13.4223 242.734 13.6912V19.1552H241.268V13.9094C241.268 13.7224 241.203 13.5626 241.075 13.4301C240.948 13.3015 240.79 13.2352 240.601 13.2352H238.869C238.684 13.2352 238.525 13.3015 238.394 13.4301C238.267 13.5587 238.201 13.7185 238.201 13.9094V19.1552H236.735V11.7581H238.066H238.07Z" fill="black"/>
<path d="M244.034 13.6951C244.034 13.4262 244.084 13.1729 244.188 12.9351C244.293 12.6974 244.428 12.4908 244.601 12.3154C244.775 12.1401 244.975 12.0037 245.207 11.9062C245.438 11.8088 245.685 11.7581 245.951 11.7581H249.362V13.169H246.167C245.982 13.169 245.824 13.2352 245.693 13.3638C245.566 13.4924 245.5 13.6522 245.5 13.8432V14.2485C245.5 14.3459 245.535 14.4356 245.6 14.5096C245.666 14.5876 245.751 14.6343 245.847 14.6499L248.324 14.9734C248.509 15.0007 248.683 15.0552 248.845 15.141C249.003 15.2267 249.142 15.3358 249.258 15.4723C249.373 15.6087 249.466 15.7607 249.531 15.9282C249.597 16.0958 249.632 16.279 249.632 16.4661V17.2182C249.632 17.4872 249.582 17.7405 249.485 17.9704C249.389 18.2043 249.254 18.4069 249.08 18.5823C248.906 18.7577 248.702 18.898 248.467 18.9993C248.231 19.1045 247.981 19.1552 247.714 19.1552H244.038V17.7405H247.502C247.687 17.7405 247.846 17.6742 247.977 17.5456C248.104 17.417 248.17 17.2572 248.17 17.0701V16.6648C248.17 16.5674 248.135 16.4778 248.069 16.4037C248.004 16.3297 247.919 16.279 247.822 16.2634L245.346 15.9399C245.161 15.9126 244.987 15.8581 244.825 15.7723C244.663 15.6866 244.528 15.5775 244.412 15.4411C244.296 15.3047 244.204 15.1527 244.138 14.9851C244.073 14.8136 244.038 14.6343 244.038 14.4473V13.6951H244.034Z" fill="black"/>
<path d="M255.306 18.8239C254.801 18.5355 254.411 18.1263 254.141 17.5924C253.871 17.0585 253.736 16.4271 253.736 15.6944V13.0715C253.736 12.3388 253.871 11.7075 254.141 11.1736C254.411 10.6396 254.801 10.2265 255.306 9.93811C255.812 9.64971 256.406 9.50551 257.093 9.50551C257.66 9.50551 258.177 9.62632 258.639 9.87185C259.102 10.1174 259.484 10.472 259.789 10.9319C260.094 11.3957 260.302 11.9413 260.418 12.5727H258.817C258.74 12.2648 258.616 11.9959 258.447 11.7659C258.277 11.536 258.076 11.3606 257.845 11.2359C257.613 11.1112 257.363 11.0527 257.093 11.0527C256.734 11.0527 256.421 11.1346 256.159 11.2983C255.897 11.462 255.696 11.6958 255.549 11.9998C255.407 12.3038 255.333 12.6584 255.333 13.0715V15.6944C255.333 16.1075 255.407 16.4622 255.549 16.7662C255.692 17.0702 255.897 17.3001 256.159 17.4638C256.421 17.6275 256.734 17.7054 257.093 17.7054C257.366 17.7054 257.617 17.647 257.849 17.5261C258.08 17.4053 258.281 17.2338 258.45 17.0078C258.62 16.7818 258.74 16.505 258.813 16.1855H260.414C260.298 16.8168 260.086 17.3625 259.781 17.8262C259.477 18.29 259.091 18.6408 258.632 18.8863C258.169 19.1318 257.656 19.2526 257.093 19.2526C256.406 19.2526 255.812 19.1084 255.306 18.8239Z" fill="black"/>
<path d="M262.065 13.6951C262.065 13.4262 262.116 13.1767 262.22 12.9429C262.324 12.7091 262.459 12.5064 262.633 12.331C262.806 12.1557 263.007 12.0154 263.238 11.914C263.47 11.8127 263.717 11.7581 263.983 11.7581H266.139C266.405 11.7581 266.656 11.8088 266.884 11.914C267.115 12.0154 267.316 12.1557 267.489 12.331C267.663 12.5064 267.802 12.7091 267.902 12.9429C268.002 13.1767 268.056 13.4262 268.056 13.6951V17.2221C268.056 17.4911 268.006 17.7444 267.902 17.9743C267.798 18.2082 267.663 18.4108 267.489 18.5862C267.316 18.7616 267.115 18.9019 266.884 19.0032C266.652 19.1084 266.405 19.1591 266.139 19.1591H263.983C263.717 19.1591 263.466 19.1084 263.238 19.0032C263.007 18.9019 262.806 18.7616 262.633 18.5862C262.459 18.4108 262.32 18.2082 262.22 17.9743C262.119 17.7405 262.065 17.4911 262.065 17.2221V13.6951ZM264.195 17.6781H265.927C266.112 17.6781 266.27 17.6119 266.401 17.4833C266.533 17.3546 266.594 17.1949 266.594 17.0078V13.9133C266.594 13.7263 266.529 13.5665 266.401 13.434C266.274 13.3054 266.116 13.2391 265.927 13.2391H264.195C264.01 13.2391 263.852 13.3054 263.72 13.434C263.593 13.5626 263.527 13.7224 263.527 13.9133V17.0078C263.527 17.1949 263.593 17.3546 263.72 17.4833C263.848 17.6119 264.006 17.6781 264.195 17.6781Z" fill="black"/>
<path d="M269.214 19.1552V17.4326H270.919V19.1552H269.214Z" fill="black"/>
<path d="M52.1869 42.3324C50.6631 42.3324 49.4209 41.0775 49.4209 39.5381C49.4209 37.9986 50.6631 36.7437 52.1869 36.7437C53.7107 36.7437 54.9528 37.9986 54.9528 39.5381C54.9528 41.0775 53.7107 42.3324 52.1869 42.3324ZM52.1869 37.0984C50.856 37.0984 49.772 38.1935 49.772 39.5381C49.772 40.8826 50.856 41.9778 52.1869 41.9778C53.5178 41.9778 54.6018 40.8826 54.6018 39.5381C54.6018 38.1935 53.5178 37.0984 52.1869 37.0984Z" fill="#8E8E8E"/>
<path opacity="0.2" d="M76.2667 4.41563H75.8115V43.0885H76.2667V4.41563Z" fill="#A0A0A0"/>
<path opacity="0.2" d="M30.5727 51C38.3556 51 44.6649 50.6981 44.6649 50.3258C44.6649 49.9534 38.3556 49.6515 30.5727 49.6515C22.7898 49.6515 16.4805 49.9534 16.4805 50.3258C16.4805 50.6981 22.7898 51 30.5727 51Z" fill="#A0A0A0"/>
<path d="M91.608 27.7254L91.6736 27.7877L91.7392 27.7254C91.9398 27.5383 92.0864 27.3473 92.2831 27.0589L92.2986 27.0355C92.5146 27.2226 92.7229 27.4097 92.9544 27.6318L93.0199 27.6942L93.0855 27.6318C93.2861 27.4448 93.4327 27.2538 93.6295 26.9654L93.6758 26.8991L93.6218 26.8407C93.317 26.5055 93.0817 26.2873 92.8155 26.0729L92.746 26.0183L92.6843 26.0807C92.5493 26.2249 92.341 26.4587 92.125 26.7627C91.8896 26.5211 91.689 26.3379 91.4691 26.1625L91.3997 26.108L91.338 26.1703C91.149 26.3691 90.9484 26.6107 90.7786 26.8524L90.7246 26.9264L90.7941 26.9849C91.0718 27.2148 91.3226 27.4409 91.608 27.7137V27.7254Z" fill="black"/>
<path d="M104.721 34.8769L104.651 34.8223L104.59 34.8847C104.397 35.0834 104.2 35.3251 104.03 35.5667C103.795 35.3251 103.598 35.1419 103.374 34.9665L103.305 34.912L103.243 34.9743C103.054 35.1731 102.854 35.4147 102.684 35.6563L102.63 35.7304L102.699 35.7889C102.977 36.0227 103.228 36.2448 103.513 36.5176L103.579 36.58L103.644 36.5176C103.845 36.3306 103.992 36.1396 104.188 35.8512L104.204 35.8278C104.424 36.0149 104.628 36.2059 104.86 36.4241L104.925 36.4865L104.991 36.4241C105.191 36.237 105.338 36.0461 105.535 35.7577L105.581 35.6914L105.527 35.633C105.222 35.2978 104.987 35.0795 104.721 34.8652V34.8769Z" fill="black"/>
<path d="M112.942 29.9858L113.004 30.0442L113.069 29.9858C113.305 29.7831 113.501 29.5493 113.667 29.2726L113.706 29.2102L113.656 29.1557C113.374 28.8556 113.085 28.5983 112.803 28.3879L112.734 28.3333L112.676 28.3996C112.475 28.6334 112.275 28.8984 112.105 29.1245L112.051 29.1985L112.278 29.3934C112.506 29.5883 112.722 29.7714 112.942 29.9819V29.9858Z" fill="black"/>
<path d="M122.848 30.1222C122.528 30.1222 122.219 30.2664 121.895 30.5626C121.618 30.8666 121.436 31.1706 121.355 31.4551C121.131 32.2501 120.777 32.6321 120.275 32.6321H114.404C114.072 32.6321 113.813 32.5502 113.597 32.3709C113.466 32.2657 113.405 32.0981 113.405 31.8604C113.405 31.7123 113.462 31.4083 113.555 31.0653L113.57 31.0147L113.439 30.8588L112.857 31.2836L112.645 32.0786C112.552 32.4372 112.016 32.6282 111.537 32.6282H105.666C105.334 32.6282 105.076 32.5463 104.86 32.367C104.729 32.2618 104.667 32.0942 104.667 31.8565C104.667 31.7084 104.725 31.4044 104.817 31.0614L104.833 31.0108L104.702 30.8549L104.119 31.2797L103.907 32.0747C103.814 32.4333 103.278 32.6243 102.8 32.6243H94.089C93.7611 32.6243 93.5412 32.5736 93.4177 32.4645C93.2326 32.3008 93.1901 31.989 93.1863 31.5408C93.1824 31.1706 93.1786 30.8042 93.1747 30.434C93.167 29.7169 93.1631 28.9764 93.1438 28.2515V28.158H92.9355L92.9085 28.1813C92.7388 28.3333 92.5536 28.5243 92.3492 28.7698L92.3222 28.801L92.3607 29.3077C91.1726 29.978 90.4473 30.6172 90.1464 31.2641C89.9844 31.6304 89.9072 31.9033 89.9072 32.1293C89.9072 32.7061 90.4203 33.053 91.2767 33.053C91.7319 33.053 92.1447 32.9672 92.6038 32.7763C92.9201 33.6064 93.5103 33.7233 94.1044 33.7233H102.78C103.39 33.7233 103.911 33.4817 104.181 33.0802C104.439 33.5128 104.918 33.7233 105.639 33.7233H111.526C112.135 33.7233 112.656 33.4817 112.926 33.0802C113.185 33.5128 113.663 33.7233 114.384 33.7233H120.256C120.892 33.7233 121.317 33.4271 121.525 32.8386C122.27 33.3764 122.945 33.6415 123.589 33.6415C123.994 33.6415 124.276 33.3102 124.422 32.6554V32.6398V32.6243C124.31 31.3771 123.782 30.1144 122.86 30.1144L122.848 30.1222ZM123.674 32.5463C123.674 32.5463 123.62 32.558 123.554 32.558C123.327 32.558 123.076 32.4956 122.759 32.3592C122.327 32.1761 122.03 31.9656 121.849 31.7201C122.03 31.3382 122.316 31.1355 122.675 31.1355C123.033 31.1355 123.465 31.5057 123.674 32.5463ZM91.5043 32.0007C91.026 32.0007 90.7058 31.8799 90.7058 31.7006C90.7058 31.5213 90.9295 31.1043 92.4109 30.3132L92.4417 31.8292C92.0637 31.9461 91.7744 32.0007 91.5043 32.0007Z" fill="black"/>
<path d="M126.93 26.3496L126.953 26.3145C127.049 26.1742 127.146 26.0067 127.234 25.8196L127.242 25.652L127.142 25.6598C126.922 25.6715 126.675 25.6871 126.436 25.6871C126 25.6871 125.533 25.5624 125.533 25.3363C125.548 25.2934 125.722 25.1804 125.927 25.1804C126.004 25.1804 126.081 25.1882 126.119 25.1999C126.143 25.2077 126.193 25.2428 126.281 25.426L126.324 25.4805H126.428L126.459 25.4454C126.563 25.3207 126.706 25.1492 126.706 24.9232C126.706 24.6972 126.521 24.4789 126.17 24.4789C125.876 24.4789 125.529 24.6426 125.259 24.9076C125.039 25.1142 124.9 25.3831 124.9 25.6013C124.9 25.878 125.055 26.1041 125.336 26.2405C125.259 26.2951 125.186 26.3613 125.14 26.4237L124.943 26.7705L125.035 26.9108L125.109 26.8757C125.63 26.638 126.235 26.4626 126.903 26.3535L126.941 26.3457L126.93 26.3496Z" fill="black"/>
<path d="M129.595 26.5562C129.595 26.5133 129.603 26.4665 129.607 26.4237L129.614 26.3652L129.452 26.2483L129.394 26.3029C129.236 26.4548 129.09 26.599 128.974 26.7627C128.858 26.9108 128.808 27.0901 128.808 27.3239C128.808 27.511 128.831 27.7449 128.854 27.9709C128.87 28.1346 128.885 28.2944 128.893 28.4347C129.02 29.7559 129.074 30.6055 129.074 31.2758C129.074 31.7669 128.935 32.1449 128.661 32.3943C128.634 31.9773 128.534 31.6032 128.353 31.2758C128.075 30.7808 127.701 30.1963 127.307 29.5766C127.118 29.2804 126.922 28.9725 126.721 28.6529L126.952 28.2359L126.898 28.1852C126.436 27.7215 126.027 27.3123 125.768 26.9615L125.733 26.9108L125.602 26.9381L125.579 26.9693C125.579 26.9693 125.24 27.4759 125.24 27.702C125.24 27.9397 125.425 28.2983 125.949 29.0699C126.131 29.3388 126.304 29.5922 126.474 29.8377C126.833 30.3599 127.169 30.8549 127.473 31.3265C127.828 31.8682 128.164 32.3826 128.237 32.6632C127.558 33.0608 126.536 33.3531 125.201 33.5323L125.116 33.544V33.7779L125.182 33.8012C125.714 33.9727 126.293 34.1286 126.937 34.1286C127.523 34.1286 128.253 33.8792 128.746 33.509C129.113 33.2361 129.348 32.8776 129.556 32.2696C129.707 31.8058 129.792 31.2953 129.792 30.8627C129.792 30.091 129.776 29.2999 129.738 28.3801C129.892 28.2749 130.023 28.158 130.131 28.0527L130.189 27.9982L130.147 27.9319C129.873 27.4837 129.595 26.9654 129.595 26.5484V26.5562Z" fill="black"/>
<path d="M132.018 26.4626L131.844 26.4042L131.802 26.4431C131.574 26.6497 131.3 26.9498 131.107 27.2031L131.084 27.2343V27.2733C131.146 27.9163 131.339 30.1339 131.339 31.6538V32.3437C131.339 32.784 131.331 33.2946 131.261 33.7389L131.25 33.8051L131.466 33.9221L131.516 33.8675C131.913 33.4271 132.133 33.1036 132.156 32.6788C132.199 32.3125 132.207 31.837 132.207 31.5018C132.207 29.409 132.149 27.8267 132.025 26.5211L132.018 26.4587V26.4626Z" fill="black"/>
<path d="M141.508 28.4814C141.685 28.3528 141.828 28.232 141.951 28.1073L142.005 28.0527L141.963 27.9865C141.585 27.3941 141.392 26.8641 141.392 26.4081V26.3457L141.23 26.2756L141.184 26.3145C140.983 26.486 140.84 26.638 140.752 26.7744C140.605 26.9654 140.586 27.1836 140.586 27.3902C140.586 27.6084 140.605 27.8306 140.624 28.0488C140.632 28.1424 140.64 28.2359 140.647 28.3216C140.775 30.0871 140.829 31.3031 140.829 32.2618C140.829 32.3943 140.821 32.5307 140.809 32.671C140.686 32.8893 140.447 33.0958 140.092 33.279C139.725 33.4972 139.347 33.6025 138.931 33.6025C138.452 33.6025 138.059 33.4193 137.797 33.0685C137.569 32.7762 137.461 32.4372 137.461 32.0358C137.461 31.6772 137.554 31.2875 137.746 30.8471L137.789 30.7536L137.361 30.586L137.322 30.6678C136.998 31.3576 136.844 31.9383 136.844 32.4878C136.844 33.1894 137.017 33.7467 137.365 34.1481C137.727 34.569 138.256 34.7873 138.892 34.7873C139.405 34.7873 139.968 34.6158 140.404 34.3274C140.767 34.0935 141.029 33.8324 141.242 33.4856C141.589 32.4684 141.589 31.8643 141.589 31.3771C141.589 30.5743 141.55 29.6155 141.519 28.7698L141.508 28.4814Z" fill="black"/>
<path d="M169.021 26.412V26.3574L168.866 26.2483L168.809 26.299C168.654 26.4354 168.515 26.5757 168.415 26.6965C168.265 26.868 168.18 27.055 168.18 27.2343C168.18 27.4253 168.203 27.6279 168.226 27.8462C168.234 27.9358 168.242 28.0333 168.253 28.1307C168.377 29.5649 168.442 30.7614 168.454 31.7863C168.454 32.1176 168.35 32.3398 168.133 32.4645C167.84 32.6243 167.597 32.6438 167.397 32.6438H167.049C166.305 32.6438 165.935 32.406 165.911 31.915V31.8487L165.873 31.837C166.05 31.7902 166.286 31.7552 166.587 31.7552H166.641L167.103 30.9796L167.127 30.9017L167.046 30.8198H166.398C166.012 30.8198 165.603 30.738 165.236 30.5899C164.226 30.1846 163.443 29.9741 162.906 29.9741C162.004 29.9741 161.355 30.5236 161.298 31.3382V31.3576L161.668 32.3709H161.876L162.115 31.6421L162.038 31.3109C162.22 31.1238 162.486 31.0264 162.818 31.0264C163.358 31.0264 164.01 31.1667 164.812 31.4551C163.443 32.2657 162.347 32.6321 161.274 32.6321H155.164C154.273 32.6321 154.226 32.0397 154.226 31.9228C154.226 29.6935 154.219 27.9904 154.088 26.3691V26.3106L153.933 26.2483L153.235 26.9615L153.258 27.359C153.366 29.0543 153.439 30.2703 153.439 31.6655C153.439 32.1917 153.293 32.3476 153.154 32.4294C152.973 32.5307 152.676 32.636 152.386 32.636H152.344H149.547H146.118C145.913 31.2641 145.25 30.2781 144.532 30.2781C144.104 30.2781 143.695 30.5353 143.379 30.9952C143.128 31.3537 143.004 31.7435 143.004 32.1878C143.004 33.2128 143.76 33.7311 145.253 33.7311H145.466C145.365 34.0078 145.165 34.2494 144.872 34.5534C144.258 35.1887 143.645 35.4966 142.997 35.4966C142.638 35.4966 142.314 35.4186 142.013 35.2549L141.928 35.2082L141.724 35.6096L141.801 35.6564C142.58 36.1396 143.271 36.3852 143.865 36.3852C144.258 36.3852 145.068 35.9954 145.628 35.1341C145.909 34.7054 146.11 34.1793 146.164 33.7311H152.344H152.367C152.942 33.7311 153.432 33.4856 153.721 33.0608C153.972 33.5012 154.45 33.7311 155.106 33.7311H161.163C162.277 33.7311 163.269 33.4271 164.283 32.7724L165.449 32.0007C165.483 31.9812 165.522 31.9578 165.576 31.9305L165.445 32.0202V32.0631C165.425 32.2073 165.422 32.3359 165.422 32.4723C165.422 33.0491 165.699 33.7311 167.019 33.7311H167.343C167.647 33.7311 167.991 33.6493 168.257 33.509C168.62 33.3258 168.801 32.9828 168.94 32.6476C169.136 32.2345 169.229 31.6616 169.229 30.8354C169.229 30.3249 169.202 29.7831 169.175 29.2531C169.163 28.9764 169.148 28.6997 169.14 28.4347C169.295 28.3217 169.43 28.2086 169.549 28.0956L169.603 28.041L169.565 27.9748C169.179 27.3317 168.998 26.8212 169.013 26.412H169.021ZM145.446 32.636C145.049 32.636 144.671 32.6282 144.335 32.5346C143.869 32.3982 143.645 32.1995 143.645 31.9305C143.645 31.7123 143.996 31.4083 144.339 31.4083C144.567 31.4083 144.798 31.533 145.007 31.7708C145.207 31.9929 145.361 32.3008 145.446 32.6399V32.636Z" fill="black"/>
<path d="M171.432 26.4626L171.255 26.4042L171.213 26.4431C170.985 26.6497 170.711 26.9498 170.514 27.2031L170.491 27.2343V27.2733C170.553 27.9202 170.746 30.1339 170.746 31.6538V32.3475C170.746 32.7918 170.746 33.2985 170.673 33.7428L170.661 33.8129L170.877 33.9299L170.931 33.8753C171.328 33.431 171.548 33.1075 171.571 32.6866C171.61 32.3203 171.618 31.8448 171.618 31.5096C171.618 29.4168 171.56 27.8345 171.436 26.5289V26.4665L171.432 26.4626Z" fill="black"/>
<path d="M177.944 27.7293L178.01 27.7916L178.075 27.7293C178.276 27.5383 178.422 27.3473 178.619 27.0628L178.638 27.0355C178.854 27.2265 179.063 27.4136 179.294 27.6357L179.36 27.6981L179.425 27.6357C179.63 27.4487 179.773 27.2538 179.973 26.9693L180.016 26.9069L179.962 26.8485C179.657 26.5133 179.421 26.2912 179.159 26.0807L179.09 26.0261L179.028 26.0885C178.893 26.2327 178.685 26.4665 178.465 26.7705V26.7783C178.226 26.5289 178.029 26.3457 177.805 26.1703L177.736 26.1158L177.678 26.182C177.485 26.3808 177.284 26.6224 177.115 26.8641L177.061 26.9381L177.13 26.9966C177.408 27.2265 177.658 27.4525 177.944 27.7293Z" fill="black"/>
<path d="M188.896 30.1222C188.576 30.1222 188.267 30.2625 187.947 30.5626C187.669 30.8666 187.484 31.1706 187.407 31.4551C187.183 32.2462 186.828 32.6321 186.327 32.6321H180.413C180.085 32.6321 179.865 32.5814 179.742 32.4723C179.557 32.3086 179.514 31.9968 179.51 31.5486C179.51 31.1862 179.503 30.8237 179.499 30.4652C179.491 29.7403 179.487 28.992 179.468 28.2593V28.1658H179.256L179.229 28.1891C179.059 28.3411 178.878 28.5321 178.666 28.7776L178.642 28.8088L178.681 29.3194C177.493 29.9897 176.768 30.6288 176.463 31.2758C176.301 31.6421 176.224 31.915 176.224 32.1371C176.224 32.7178 176.737 33.0608 177.593 33.0608C178.048 33.0608 178.457 32.975 178.92 32.7802C179.236 33.6103 179.823 33.7272 180.421 33.7272H186.285C186.921 33.7272 187.345 33.431 187.554 32.8425C188.298 33.3842 188.973 33.6454 189.618 33.6454C190.023 33.6454 190.304 33.3102 190.451 32.6593V32.6438V32.6282C190.335 31.381 189.807 30.1222 188.885 30.1222H188.896ZM177.832 32.0007C177.354 32.0007 177.038 31.8799 177.038 31.7006C177.038 31.5213 177.261 31.1004 178.743 30.3132L178.774 31.8292C178.396 31.9461 178.102 32.0007 177.836 32.0007H177.832ZM189.602 32.558C189.375 32.558 189.12 32.4957 188.807 32.3592C188.375 32.18 188.075 31.9656 187.897 31.7201C188.082 31.3343 188.368 31.1316 188.723 31.1316C189.078 31.1316 189.513 31.5057 189.722 32.5424C189.702 32.5424 189.668 32.5541 189.602 32.5541V32.558Z" fill="black"/>
<path d="M230.235 30.1222C229.915 30.1222 229.606 30.2625 229.286 30.5626C229.009 30.8666 228.823 31.1706 228.746 31.4551C228.522 32.2462 228.168 32.6321 227.666 32.6321H221.795C221.463 32.6321 221.204 32.5502 220.992 32.3709C220.861 32.2657 220.795 32.0981 220.795 31.8604C220.795 31.7123 220.853 31.4044 220.946 31.0692L220.961 31.0186L220.826 30.8627L220.244 31.2875L220.032 32.0825C219.939 32.445 219.403 32.6321 218.924 32.6321H212.906C212.671 32.6321 212.482 32.6243 212.343 32.6126C212.509 32.3125 212.648 31.9851 212.648 31.6499C212.648 30.6561 211.838 29.8143 210.881 29.8143C210.438 29.8143 209.936 29.9663 209.531 30.2196C209.153 30.4496 208.748 30.7925 208.289 31.2563C208.374 30.9367 208.412 30.5899 208.412 30.1846C208.412 29.4012 208.381 28.6139 208.351 27.9397L208.837 27.5617L208.79 27.4876C208.401 26.8524 208.208 26.3652 208.208 25.9872V25.9482L208.073 25.8079L208.007 25.8586C207.656 26.1275 207.421 26.3847 207.421 26.7471C207.421 26.9771 207.444 27.2421 207.463 27.4487C207.533 28.1891 207.637 29.7286 207.637 30.6795C207.637 31.4005 207.625 31.7006 207.54 32.0397L207.05 32.6321H194.887C194.679 31.2602 194.023 30.2742 193.302 30.2742C192.873 30.2742 192.464 30.5275 192.148 30.9913C191.894 31.3537 191.774 31.7435 191.774 32.1839C191.774 33.2089 192.53 33.7272 194.023 33.7272H194.235C194.135 34.0078 193.934 34.2494 193.637 34.5495C193.02 35.1887 192.41 35.4927 191.762 35.4927C191.404 35.4927 191.08 35.4147 190.782 35.251L190.698 35.2043L190.493 35.6057L190.57 35.6525C191.346 36.1357 192.04 36.3813 192.634 36.3813C193.028 36.3813 193.834 35.9915 194.397 35.1341C194.679 34.7054 194.883 34.1793 194.937 33.7272H207.108C208.771 33.7272 209.897 33.6609 210.75 33.505C211.483 33.657 212.224 33.7272 213.014 33.7272H218.909C219.519 33.7272 220.035 33.4856 220.309 33.0841C220.564 33.5167 221.046 33.7272 221.764 33.7272H227.635C228.272 33.7272 228.696 33.431 228.904 32.8425C229.649 33.3842 230.324 33.6454 230.968 33.6454C231.373 33.6454 231.655 33.3102 231.801 32.6593V32.6437V32.6282C231.686 31.381 231.157 30.1222 230.235 30.1222ZM193.097 32.5307C192.63 32.3943 192.403 32.1956 192.403 31.9227C192.403 31.7045 192.754 31.3966 193.097 31.3966C193.329 31.3966 193.56 31.5213 193.768 31.7591C193.969 31.9812 194.127 32.293 194.212 32.6282C193.811 32.6282 193.437 32.6204 193.101 32.5268L193.097 32.5307ZM208.347 32.6321H207.918C208.906 31.5759 209.662 30.9679 210.503 30.9679C211.255 30.9679 211.838 31.5447 211.861 32.0436C211.456 32.6321 209.122 32.6321 208.343 32.6321H208.347ZM230.945 32.5541C230.717 32.5541 230.463 32.4918 230.154 32.3553C229.722 32.1761 229.421 31.9617 229.244 31.7162C229.429 31.3304 229.714 31.1277 230.069 31.1277C230.424 31.1277 230.856 31.5018 231.069 32.5385C231.049 32.5385 231.015 32.5502 230.949 32.5502L230.945 32.5541Z" fill="black"/>
<path d="M210.337 29.0037L210.399 29.066L210.465 29.0076C210.7 28.8049 210.897 28.5711 211.067 28.2905L211.105 28.2281L211.055 28.1735C210.773 27.8734 210.484 27.6123 210.206 27.4058L210.133 27.3512L210.075 27.4175C209.875 27.6513 209.674 27.9163 209.504 28.1463L209.45 28.2203L209.678 28.4152C209.905 28.61 210.121 28.7932 210.341 29.0037H210.337Z" fill="black"/>
<path d="M220.333 29.9858L220.394 30.0442L220.46 29.9897C220.699 29.787 220.892 29.5493 221.062 29.2726L221.1 29.2063L221.05 29.1518C220.765 28.8517 220.479 28.5906 220.201 28.384L220.128 28.3333L220.07 28.3996C219.87 28.6334 219.669 28.8984 219.499 29.1245L219.445 29.1985L219.669 29.3895C219.897 29.5883 220.117 29.7714 220.336 29.9858H220.333Z" fill="black"/>
<path d="M238.29 27.7293L238.355 27.7916L238.421 27.7293C238.621 27.5383 238.768 27.3473 238.969 27.0628L238.984 27.0355C239.204 27.2265 239.412 27.4136 239.64 27.6357L239.705 27.6981L239.771 27.6357C239.976 27.4487 240.122 27.2538 240.319 26.9693L240.361 26.9069L240.311 26.8485C240.003 26.5133 239.767 26.2912 239.505 26.0807L239.435 26.0261L239.374 26.0885C239.239 26.2327 239.03 26.4665 238.814 26.7705V26.7783C238.575 26.5289 238.375 26.3457 238.151 26.1703L238.085 26.1158L238.024 26.182C237.835 26.3808 237.634 26.6224 237.46 26.8641L237.41 26.9381L237.48 26.9966C237.753 27.2265 238.008 27.4525 238.29 27.7293Z" fill="black"/>
<path d="M252.575 31.5174C252.575 30.6366 251.63 29.6506 250.804 28.9686L250.986 28.5906L249.944 28.1813C250.716 27.8462 251.402 27.5695 252.046 27.3473C252.421 27.2109 252.806 27.094 253.161 27.0005L253.2 26.9927L253.219 26.9615C253.389 26.7004 253.582 26.3964 253.748 26.0846L253.779 26.0261L253.647 25.8702L253.586 25.8897C251.9 26.447 250.615 26.8991 249.809 27.3083C249.527 27.4525 249.354 27.5967 249.246 27.776C249.126 27.9826 249.072 28.1385 249.072 28.2788C249.072 28.6217 249.165 28.8595 249.362 29.0076C250.665 30.0287 251.229 30.6873 251.449 30.9874C251.645 31.2641 251.911 31.6655 251.911 31.9851C251.911 32.0124 251.838 32.1215 251.572 32.2852C251.07 32.6009 250.341 32.6398 249.755 32.6398H240.763C240.431 32.6398 240.211 32.5892 240.088 32.4801C239.902 32.3164 239.864 32.0046 239.856 31.5564C239.856 31.1939 239.848 30.8315 239.845 30.4729C239.845 29.748 239.833 28.9998 239.814 28.2671V28.1735H239.605L239.578 28.1969C239.409 28.3489 239.223 28.5399 239.015 28.7854L238.988 28.8166L239.027 29.3271C237.839 29.9975 237.113 30.6366 236.812 31.2836C236.646 31.6499 236.569 31.9227 236.569 32.1449C236.569 32.7256 237.082 33.0685 237.939 33.0685C238.394 33.0685 238.803 32.9828 239.266 32.7879C239.582 33.6181 240.172 33.735 240.767 33.735H249.589C250.777 33.735 251.572 33.5206 252.093 33.0491C252.398 32.7373 252.567 32.18 252.567 31.5213L252.575 31.5174ZM238.182 32.0007C237.703 32.0007 237.383 31.8799 237.383 31.7006C237.383 31.5213 237.611 31.1004 239.088 30.3132L239.119 31.8292C238.741 31.9461 238.448 32.0007 238.186 32.0007H238.182Z" fill="black"/>
<path d="M268.7 28.6919L268.765 28.7542L268.835 28.6958C269.035 28.5048 269.182 28.3139 269.379 28.0293L269.425 27.9631L269.371 27.9046C269.063 27.5695 268.831 27.3473 268.565 27.1369L268.495 27.0823L268.438 27.1486C268.299 27.2889 268.09 27.5266 267.874 27.8306L267.82 27.9046L267.89 27.9631C268.168 28.193 268.418 28.4191 268.7 28.6919Z" fill="black"/>
<path d="M268.322 30.1963L268.388 30.2586L268.457 30.1963C268.658 30.0053 268.804 29.8182 269.001 29.5298L269.016 29.5064C269.236 29.6935 269.445 29.8845 269.676 30.1027L269.742 30.169L269.807 30.1066C270.008 29.9156 270.151 29.7325 270.355 29.4402L270.397 29.3739L270.343 29.3155C270.039 28.9842 269.803 28.762 269.537 28.5477L269.472 28.4931L269.41 28.5594C269.217 28.7581 269.02 28.9998 268.847 29.2414C268.611 28.9998 268.415 28.8166 268.191 28.6412L268.121 28.5867L268.064 28.649C267.871 28.8517 267.67 29.0933 267.5 29.3311L267.446 29.4051L267.516 29.4636C267.793 29.6974 268.044 29.9234 268.326 30.1963H268.322Z" fill="black"/>
<path d="M270.887 30.5977L270.88 30.5509L270.737 30.4769L270.687 30.5197C270.459 30.7107 270.243 30.9328 270.046 31.1667L270.015 31.2056L270.027 31.2524C270.139 31.7786 270.197 32.1527 270.197 32.3709C270.197 32.5892 269.969 32.5931 269.923 32.5931C269.618 32.5931 269.29 32.3437 269.29 31.876C269.29 31.685 269.325 31.4239 269.379 31.2056L269.394 31.1394L269.248 31.042L268.742 31.3382L268.661 31.6071C268.507 32.1449 268.461 32.3047 268.272 32.445C268.106 32.5619 267.894 32.6321 267.701 32.6321C267.535 32.6321 267.435 32.5346 267.435 32.3748C267.435 32.18 267.658 31.7941 267.898 31.4122L267.932 31.3537L267.82 31.2095L267.184 31.4356L266.783 32.0202C266.493 32.4372 266.061 32.6282 265.386 32.636H256.637C255.892 32.636 255.557 32.141 255.156 31.1706L255.125 31.1004L254.955 31.1277L254.932 31.1706C254.789 31.4473 254.666 31.7123 254.542 31.9929L254.527 32.0358L254.546 32.0747C254.681 32.3631 254.862 32.7139 255.163 33.1426C255.252 33.2595 255.306 33.357 255.329 33.4154C255.171 34.3741 254.021 35.4225 253.107 35.4225C252.802 35.4225 252.544 35.3758 252.343 35.2783L252.255 35.2316L252.073 35.6486L252.154 35.6914C252.633 35.9487 253.331 36.2565 253.944 36.2565C254.558 36.2565 255.171 35.7382 255.699 34.8029C255.881 34.4755 255.993 34.039 255.993 33.6609C255.993 33.6376 255.993 33.6181 255.993 33.5947C256.159 33.6921 256.359 33.735 256.621 33.735H265.274C265.895 33.735 266.37 33.5674 266.725 33.2205C266.814 33.5596 267.064 33.735 267.462 33.735C267.921 33.735 268.326 33.544 268.704 33.1504C268.978 33.5089 269.306 33.7155 269.61 33.7155C270.015 33.7155 270.409 33.4232 270.729 32.8893C270.856 32.6399 270.991 32.215 270.991 31.876C270.991 31.5369 270.953 31.0692 270.88 30.6055L270.887 30.5977Z" fill="black"/>
<path d="M51.3516 40.9149V38.3388H52.4941C52.6934 38.3388 52.8451 38.3544 52.9492 38.3857C53.1055 38.4312 53.224 38.5204 53.3047 38.6532C53.3763 38.7704 53.4121 38.9 53.4121 39.0419C53.4121 39.4429 53.1699 39.6767 52.6855 39.7431C52.7767 39.786 52.8451 39.8284 52.8906 39.87C52.9935 39.9638 53.0879 40.0784 53.1738 40.2138L53.623 40.9149H53.1934L52.8516 40.3798C52.776 40.2587 52.7129 40.1643 52.6621 40.0966C52.571 39.9729 52.4948 39.8915 52.4336 39.8524C52.3802 39.8173 52.3281 39.7939 52.2773 39.7821C52.2422 39.7743 52.179 39.7704 52.0879 39.7704H51.6914V40.9149H51.3516ZM51.6914 39.4755H52.4258C52.7161 39.4755 52.9049 39.4078 52.9922 39.2724C53.0378 39.2021 53.0605 39.1252 53.0605 39.0419C53.0605 38.762 52.8763 38.622 52.5078 38.622H51.6914V39.4755Z" fill="#8E8E8E"/>
</g>
<defs>
<linearGradient id="paint0_linear_583_899" x1="24.1568" y1="29.3193" x2="14.6666" y2="17.1912" gradientUnits="userSpaceOnUse">
<stop offset="0.03" stop-color="#5B0C04"/>
<stop offset="1" stop-color="#C41A2B"/>
</linearGradient>
<linearGradient id="paint1_linear_583_899" x1="3.54137" y1="42.6091" x2="30.0549" y2="24.184" gradientUnits="userSpaceOnUse">
<stop stop-color="#C01522"/>
<stop offset="1" stop-color="#ED0A21"/>
</linearGradient>
<linearGradient id="paint2_linear_583_899" x1="29.9124" y1="13.0092" x2="9.58902" y2="1.79002" gradientUnits="userSpaceOnUse">
<stop offset="0.03" stop-color="#5B0C04"/>
<stop offset="1" stop-color="#C41A2B"/>
</linearGradient>
<linearGradient id="paint3_linear_583_899" x1="9.17341" y1="22.2574" x2="29.2545" y2="9.86497" gradientUnits="userSpaceOnUse">
<stop stop-color="#C01522"/>
<stop offset="1" stop-color="#ED0A21"/>
</linearGradient>
<linearGradient id="paint4_linear_583_899" x1="33.6741" y1="16.4739" x2="48.0302" y2="26.0307" gradientUnits="userSpaceOnUse">
<stop offset="0.03" stop-color="#5B0C04"/>
<stop offset="1" stop-color="#C41A2B"/>
</linearGradient>
<linearGradient id="paint5_linear_583_899" x1="29.9355" y1="31.116" x2="51.855" y2="31.116" gradientUnits="userSpaceOnUse">
<stop stop-color="#C01522"/>
<stop offset="1" stop-color="#ED0A21"/>
</linearGradient>
<linearGradient id="paint6_linear_583_899" x1="30.5032" y1="21.1584" x2="58.0808" y2="1.99522" gradientUnits="userSpaceOnUse">
<stop stop-color="#C01522"/>
<stop offset="1" stop-color="#ED0A21"/>
</linearGradient>
<clipPath id="clip0_583_899">
<rect width="271" height="51" fill="white"/>
</clipPath>
</defs>
</svg>
