<svg width="269" height="52" viewBox="0 0 269 52" fill="none" xmlns="http://www.w3.org/2000/svg">
<g clip-path="url(#clip0_236_3316)">
<path d="M86.598 13.7437V12.4447C86.598 12.1734 86.6489 11.9202 86.7539 11.6791C86.8588 11.441 86.9967 11.2331 87.1706 11.0552C87.3444 10.8774 87.5483 10.7418 87.7821 10.6423C88.0159 10.5429 88.2678 10.4946 88.5376 10.4946H91.3915C91.6613 10.4946 91.9131 10.5459 92.1529 10.6423C92.3898 10.7418 92.5966 10.8804 92.7735 11.0552C92.9503 11.23 93.0852 11.438 93.1842 11.6791C93.2831 11.9172 93.3311 12.1734 93.3311 12.4447V13.7437H91.8502V12.6617C91.8502 12.4718 91.7842 12.3121 91.6553 12.1825C91.5264 12.0529 91.3645 11.9865 91.1756 11.9865H88.7534C88.5645 11.9865 88.4057 12.0529 88.2737 12.1825C88.1418 12.3121 88.0789 12.4748 88.0789 12.6617V13.6503C88.0789 13.8492 88.1778 13.9788 88.3757 14.0421L92.117 15.097C92.4767 15.1964 92.7675 15.3984 92.9923 15.6998C93.2172 16.0011 93.3281 16.3417 93.3281 16.7215V18.0205C93.3281 18.2918 93.2771 18.5449 93.1812 18.78C93.0822 19.0151 92.9473 19.2201 92.7705 19.3949C92.5936 19.5697 92.3898 19.7113 92.1499 19.8138C91.9131 19.9193 91.6583 19.9705 91.3885 19.9705H88.5346C88.2648 19.9705 88.0129 19.9193 87.7791 19.8138C87.5453 19.7113 87.3414 19.5697 87.1676 19.3949C86.9937 19.2201 86.8528 19.0151 86.7509 18.78C86.6489 18.5449 86.595 18.2918 86.595 18.0205V16.7215H88.0759V17.8035C88.0759 17.9934 88.1419 18.1531 88.2708 18.2827C88.3997 18.4123 88.5615 18.4786 88.7504 18.4786H91.1726C91.3615 18.4786 91.5204 18.4123 91.6523 18.2827C91.7812 18.1531 91.8471 17.9904 91.8471 17.8035V16.8149C91.8471 16.616 91.7482 16.4864 91.5504 16.4231L87.8091 15.3682C87.4494 15.2597 87.1586 15.0578 86.9337 14.7594C86.7089 14.461 86.598 14.1234 86.598 13.7437Z" fill="white"/>
<path d="M94.4583 12.5229H96.0321L97.9177 17.9782L99.8153 12.5229H101.389L98.2115 21.3087C98.0586 21.7156 97.8068 22.0441 97.4591 22.2973C97.1113 22.5504 96.7126 22.677 96.2749 22.677H94.9139V21.3237H96.0861C96.2569 21.3237 96.4098 21.2725 96.5447 21.1761C96.6796 21.0766 96.7786 20.95 96.8415 20.7963L97.1383 19.9584L94.4583 12.529V12.5229Z" fill="white"/>
<path d="M102.229 14.473C102.229 14.2017 102.279 13.9486 102.384 13.7074C102.489 13.4693 102.627 13.2614 102.801 13.0835C102.975 12.9057 103.179 12.7701 103.413 12.6706C103.646 12.5712 103.898 12.5229 104.168 12.5229H107.616V13.9425H104.384C104.195 13.9425 104.036 14.0088 103.904 14.1384C103.775 14.268 103.709 14.4308 103.709 14.6177V15.0245C103.709 15.124 103.742 15.2114 103.811 15.2898C103.877 15.3681 103.961 15.4133 104.06 15.4314L106.563 15.7569C106.752 15.7841 106.926 15.8413 107.088 15.9257C107.25 16.0101 107.388 16.1216 107.505 16.2573C107.622 16.3929 107.715 16.5466 107.78 16.7184C107.846 16.8902 107.882 17.071 107.882 17.2609V18.0174C107.882 18.2887 107.831 18.5418 107.736 18.7769C107.637 19.012 107.502 19.217 107.325 19.3918C107.148 19.5666 106.944 19.7083 106.704 19.8107C106.467 19.9162 106.213 19.9675 105.943 19.9675H102.229V18.5449H105.727C105.916 18.5449 106.075 18.4786 106.207 18.349C106.336 18.2194 106.401 18.0566 106.401 17.8697V17.4628C106.401 17.3634 106.368 17.276 106.3 17.1976C106.231 17.1193 106.15 17.074 106.051 17.056L103.548 16.7304C103.359 16.7033 103.185 16.6461 103.023 16.5617C102.861 16.4773 102.723 16.3658 102.606 16.2301C102.489 16.0945 102.396 15.9408 102.33 15.769C102.264 15.5972 102.229 15.4164 102.229 15.2265V14.467V14.473Z" fill="white"/>
<path d="M108.635 14.0118V12.5229H109.78V10.4915H111.261V12.5229H113.348V14.0118H111.261V17.8033C111.261 17.9932 111.327 18.153 111.456 18.2826C111.585 18.4122 111.747 18.4785 111.936 18.4785H113.482V19.9674H111.72C111.45 19.9674 111.198 19.9161 110.964 19.8106C110.73 19.7082 110.527 19.5665 110.353 19.3917C110.179 19.2169 110.038 19.0119 109.936 18.7769C109.834 18.5418 109.78 18.2886 109.78 18.0173V14.0118H108.635Z" fill="white"/>
<path d="M114.64 14.473C114.64 14.2017 114.691 13.9486 114.796 13.7074C114.9 13.4693 115.038 13.2614 115.212 13.0835C115.386 12.9057 115.59 12.7701 115.824 12.6706C116.058 12.5712 116.309 12.5229 116.579 12.5229H118.759C119.028 12.5229 119.28 12.5712 119.52 12.6706C119.757 12.7701 119.964 12.9087 120.141 13.0835C120.318 13.2584 120.452 13.4663 120.551 13.7074C120.65 13.9486 120.698 14.2017 120.698 14.473V16.9233H116.121V17.9391C116.121 18.1289 116.187 18.2887 116.315 18.4183C116.444 18.5479 116.606 18.6142 116.795 18.6142H120.428V19.9675H116.579C116.309 19.9675 116.058 19.9162 115.824 19.8107C115.59 19.7083 115.386 19.5666 115.212 19.3918C115.038 19.217 114.897 19.012 114.796 18.7769C114.694 18.5418 114.64 18.2887 114.64 18.0174V14.47V14.473ZM119.217 15.5701V14.5544C119.217 14.3645 119.151 14.2047 119.022 14.0751C118.894 13.9455 118.732 13.8792 118.543 13.8792H116.792C116.603 13.8792 116.444 13.9455 116.312 14.0751C116.184 14.2047 116.118 14.3675 116.118 14.5544V15.5701H119.214H119.217Z" fill="white"/>
<path d="M122.179 19.9675V12.5229H123.525L123.66 13.2825C123.84 13.0474 124.062 12.8635 124.325 12.7279C124.589 12.5923 124.88 12.526 125.195 12.526H125.893C126.28 12.526 126.625 12.6284 126.93 12.8304C127.236 13.0323 127.47 13.2915 127.632 13.608C127.794 13.2915 128.031 13.0323 128.339 12.8304C128.648 12.6284 128.993 12.526 129.368 12.526H130.069C130.339 12.526 130.591 12.5742 130.831 12.6736C131.067 12.7731 131.274 12.9118 131.451 13.0866C131.628 13.2614 131.763 13.4693 131.862 13.7105C131.961 13.9486 132.009 14.2047 132.009 14.476V19.9705H130.528V14.693C130.528 14.5031 130.462 14.3434 130.333 14.2138C130.204 14.0842 130.045 14.0179 129.856 14.0179H128.51C128.321 14.0179 128.163 14.0842 128.034 14.2138C127.905 14.3434 127.839 14.5061 127.839 14.693V19.9705H126.358V14.693C126.358 14.5031 126.292 14.3434 126.163 14.2138C126.034 14.0842 125.872 14.0179 125.683 14.0179H124.337C124.149 14.0179 123.99 14.0842 123.858 14.2138C123.729 14.3434 123.663 14.5061 123.663 14.693V19.9705H122.182L122.179 19.9675Z" fill="white"/>
<path d="M136.976 13.7437V12.4447C136.976 12.1734 137.027 11.9202 137.132 11.6791C137.237 11.441 137.375 11.2331 137.549 11.0552C137.723 10.8804 137.927 10.7418 138.161 10.6423C138.394 10.5429 138.646 10.4946 138.916 10.4946H141.77C142.04 10.4946 142.292 10.5459 142.531 10.6423C142.768 10.7418 142.975 10.8804 143.152 11.0552C143.326 11.23 143.464 11.438 143.563 11.6791C143.662 11.9172 143.709 12.1734 143.709 12.4447V13.7437H142.229V12.6617C142.229 12.4718 142.163 12.3121 142.034 12.1825C141.905 12.0529 141.743 11.9865 141.554 11.9865H139.132C138.943 11.9865 138.784 12.0529 138.652 12.1825C138.52 12.3121 138.457 12.4748 138.457 12.6617V13.6503C138.457 13.8492 138.556 13.9788 138.754 14.0421L142.495 15.097C142.855 15.1964 143.146 15.3984 143.371 15.6998C143.596 16.0011 143.706 16.3417 143.706 16.7215V18.0205C143.706 18.2918 143.656 18.5449 143.56 18.78C143.461 19.0151 143.326 19.2201 143.149 19.3949C142.975 19.5697 142.768 19.7113 142.528 19.8138C142.292 19.9193 142.037 19.9705 141.767 19.9705H138.913C138.643 19.9705 138.391 19.9193 138.158 19.8138C137.924 19.7113 137.72 19.5697 137.546 19.3949C137.372 19.2201 137.231 19.0151 137.129 18.78C137.027 18.5449 136.973 18.2918 136.973 18.0205V16.7215H138.454V17.8035C138.454 17.9934 138.52 18.1531 138.649 18.2827C138.778 18.4123 138.94 18.4786 139.129 18.4786H141.551C141.74 18.4786 141.899 18.4123 142.031 18.2827C142.163 18.1531 142.226 17.9904 142.226 17.8035V16.8149C142.226 16.616 142.127 16.4864 141.929 16.4231L138.188 15.3682C137.828 15.2597 137.537 15.0578 137.312 14.7594C137.087 14.461 136.976 14.1234 136.976 13.7437Z" fill="white"/>
<path d="M145.256 14.473C145.256 14.2017 145.307 13.9486 145.412 13.7074C145.517 13.4693 145.655 13.2614 145.829 13.0835C146.003 12.9057 146.207 12.7701 146.44 12.6706C146.674 12.5712 146.926 12.5229 147.196 12.5229H149.375C149.645 12.5229 149.897 12.5712 150.137 12.6706C150.374 12.7701 150.58 12.9087 150.757 13.0835C150.934 13.2584 151.069 13.4663 151.168 13.7074C151.267 13.9455 151.315 14.2017 151.315 14.473V16.9233H146.737V17.9391C146.737 18.1289 146.803 18.2887 146.932 18.4183C147.061 18.5479 147.223 18.6142 147.412 18.6142H151.045V19.9675H147.196C146.926 19.9675 146.674 19.9162 146.44 19.8107C146.207 19.7083 146.003 19.5666 145.829 19.3918C145.655 19.217 145.514 19.012 145.412 18.7769C145.31 18.5418 145.256 18.2887 145.256 18.0174V14.47V14.473ZM149.834 15.5701V14.5544C149.834 14.3645 149.768 14.2047 149.639 14.0751C149.51 13.9455 149.348 13.8792 149.16 13.8792H147.409C147.22 13.8792 147.061 13.9455 146.929 14.0751C146.8 14.2047 146.734 14.3675 146.734 14.5544V15.5701H149.831H149.834Z" fill="white"/>
<path d="M152.661 18.0204V14.473C152.661 14.2017 152.712 13.9486 152.817 13.7074C152.922 13.4693 153.06 13.2614 153.233 13.0835C153.407 12.9057 153.611 12.7701 153.845 12.6706C154.079 12.5712 154.331 12.5229 154.6 12.5229H157.547V14.0119H154.816C154.627 14.0119 154.469 14.0782 154.337 14.2078C154.208 14.3374 154.142 14.5001 154.142 14.687V17.8004C154.142 17.9903 154.208 18.15 154.337 18.2796C154.466 18.4092 154.627 18.4755 154.816 18.4755H157.547V19.9644H154.6C154.331 19.9644 154.079 19.9132 153.845 19.8077C153.611 19.7052 153.407 19.5636 153.233 19.3888C153.06 19.214 152.919 19.009 152.817 18.7739C152.715 18.5388 152.661 18.2857 152.661 18.0144V18.0204Z" fill="white"/>
<path d="M158.758 18.0203V12.5259H160.239V17.8033C160.239 17.9932 160.305 18.153 160.434 18.2826C160.563 18.4122 160.725 18.4785 160.914 18.4785H162.664C162.853 18.4785 163.012 18.4122 163.144 18.2826C163.276 18.153 163.339 17.9902 163.339 17.8033V12.5259H164.82V19.9704H163.474L163.339 19.2109C163.159 19.446 162.937 19.6298 162.673 19.7654C162.41 19.9011 162.119 19.9674 161.804 19.9674H160.701C160.431 19.9674 160.179 19.9161 159.945 19.8106C159.712 19.7082 159.508 19.5665 159.334 19.3917C159.16 19.2169 159.019 19.0119 158.917 18.7768C158.815 18.5418 158.761 18.2886 158.761 18.0173L158.758 18.0203Z" fill="white"/>
<path d="M166.499 19.9675V12.5229H167.845L167.98 13.2825C168.16 13.0474 168.381 12.8635 168.645 12.7279C168.909 12.5923 169.2 12.526 169.515 12.526H170.51V14.0149H168.651C168.462 14.0149 168.304 14.0812 168.172 14.2108C168.043 14.3404 167.977 14.5031 167.977 14.69V19.9675H166.496H166.499Z" fill="white"/>
<path d="M171.628 11.3053V9.81641H173.109V11.3053H171.628ZM171.628 19.9675V12.523H173.109V19.9675H171.628Z" fill="white"/>
<path d="M174.227 14.0118V12.5229H175.372V10.4915H176.853V12.5229H178.94V14.0118H176.853V17.8033C176.853 17.9932 176.919 18.153 177.048 18.2826C177.177 18.4122 177.339 18.4785 177.528 18.4785H179.075V19.9674H177.312C177.042 19.9674 176.79 19.9161 176.556 19.8106C176.323 19.7082 176.119 19.5665 175.945 19.3917C175.771 19.2169 175.63 19.0119 175.528 18.7769C175.426 18.5418 175.372 18.2886 175.372 18.0173V14.0118H174.227Z" fill="white"/>
<path d="M179.815 12.5229H181.389L183.274 17.9782L185.172 12.5229H186.746L183.568 21.3087C183.415 21.7156 183.164 22.0441 182.816 22.2973C182.465 22.5504 182.069 22.677 181.632 22.677H180.271V21.3237H181.443C181.614 21.3237 181.767 21.2725 181.901 21.1761C182.036 21.0766 182.135 20.95 182.198 20.7963L182.495 19.9584L179.815 12.529V12.5229Z" fill="white"/>
<path d="M191.216 13.7437V12.4447C191.216 12.1734 191.267 11.9202 191.372 11.6791C191.476 11.441 191.614 11.2331 191.788 11.0552C191.962 10.8774 192.166 10.7418 192.4 10.6423C192.634 10.5429 192.885 10.4946 193.155 10.4946H196.009C196.279 10.4946 196.531 10.5459 196.771 10.6423C197.007 10.7418 197.214 10.8804 197.391 11.0552C197.568 11.23 197.703 11.438 197.802 11.6791C197.901 11.9172 197.949 12.1734 197.949 12.4447V13.7437H196.468V12.6617C196.468 12.4718 196.402 12.3121 196.273 12.1825C196.144 12.0529 195.982 11.9865 195.793 11.9865H193.371C193.182 11.9865 193.023 12.0529 192.891 12.1825C192.763 12.3121 192.697 12.4748 192.697 12.6617V13.6503C192.697 13.8492 192.795 13.9788 192.993 14.0421L196.735 15.097C197.094 15.1964 197.385 15.3984 197.61 15.6998C197.835 16.0011 197.946 16.3417 197.946 16.7215V18.0205C197.946 18.2918 197.895 18.5449 197.799 18.78C197.7 19.0151 197.565 19.2201 197.388 19.3949C197.211 19.5697 197.007 19.7113 196.768 19.8138C196.531 19.9193 196.276 19.9705 196.006 19.9705H193.152C192.882 19.9705 192.631 19.9193 192.397 19.8138C192.163 19.7113 191.959 19.5697 191.785 19.3949C191.611 19.2201 191.47 19.0151 191.369 18.78C191.267 18.5449 191.213 18.2918 191.213 18.0205V16.7215H192.694V17.8035C192.694 17.9934 192.76 18.1531 192.888 18.2827C193.017 18.4123 193.179 18.4786 193.368 18.4786H195.79C195.979 18.4786 196.138 18.4123 196.27 18.2827C196.402 18.1531 196.465 17.9904 196.465 17.8035V16.8149C196.465 16.616 196.366 16.4864 196.168 16.4231L192.427 15.3682C192.067 15.2597 191.776 15.0578 191.551 14.7594C191.327 14.461 191.216 14.1234 191.216 13.7437Z" fill="white"/>
<path d="M199.496 14.4729C199.496 14.2016 199.547 13.9485 199.651 13.7164C199.756 13.4813 199.894 13.2764 200.068 13.1015C200.242 12.9267 200.446 12.7851 200.68 12.6826C200.914 12.5801 201.165 12.5259 201.435 12.5259H203.615C203.884 12.5259 204.136 12.5771 204.37 12.6826C204.604 12.7851 204.808 12.9267 204.982 13.1015C205.155 13.2764 205.296 13.4813 205.398 13.7164C205.5 13.9515 205.554 14.2047 205.554 14.4729V18.0203C205.554 18.2916 205.503 18.5448 205.398 18.7799C205.293 19.015 205.155 19.2199 204.982 19.3947C204.808 19.5695 204.604 19.7112 204.37 19.8137C204.136 19.9191 203.884 19.9704 203.615 19.9704H201.435C201.165 19.9704 200.914 19.9191 200.68 19.8137C200.446 19.7112 200.242 19.5695 200.068 19.3947C199.894 19.2199 199.753 19.015 199.651 18.7799C199.55 18.5448 199.496 18.2916 199.496 18.0203V14.4729ZM201.651 18.4785H203.402C203.591 18.4785 203.75 18.4122 203.881 18.2826C204.013 18.153 204.076 17.9902 204.076 17.8033V14.6899C204.076 14.5 204.01 14.3403 203.881 14.2107C203.753 14.0811 203.591 14.0148 203.402 14.0148H201.651C201.462 14.0148 201.303 14.0811 201.171 14.2107C201.042 14.3403 200.977 14.503 200.977 14.6899V17.8033C200.977 17.9932 201.042 18.153 201.171 18.2826C201.3 18.4122 201.462 18.4785 201.651 18.4785Z" fill="white"/>
<path d="M207.17 19.9675V9.81641H208.651V19.9675H207.17Z" fill="white"/>
<path d="M210.348 18.0203V12.5259H211.829V17.8033C211.829 17.9932 211.895 18.153 212.024 18.2826C212.153 18.4122 212.314 18.4785 212.503 18.4785H214.254C214.443 18.4785 214.602 18.4122 214.734 18.2826C214.866 18.153 214.929 17.9902 214.929 17.8033V12.5259H216.409V19.9704H215.063L214.929 19.2109C214.749 19.446 214.527 19.6298 214.263 19.7654C213.999 19.9011 213.708 19.9674 213.394 19.9674H212.29C212.021 19.9674 211.769 19.9161 211.535 19.8106C211.301 19.7082 211.097 19.5665 210.923 19.3917C210.75 19.2169 210.609 19.0119 210.507 18.7768C210.405 18.5418 210.351 18.2886 210.351 18.0173L210.348 18.0203Z" fill="white"/>
<path d="M217.444 14.0118V12.5229H218.589V10.4915H220.07V12.5229H222.156V14.0118H220.07V17.8033C220.07 17.9932 220.136 18.153 220.265 18.2826C220.393 18.4122 220.555 18.4785 220.744 18.4785H222.291V19.9674H220.528C220.259 19.9674 220.007 19.9161 219.773 19.8106C219.539 19.7082 219.335 19.5665 219.161 19.3917C218.987 19.2169 218.847 19.0119 218.745 18.7769C218.643 18.5418 218.589 18.2886 218.589 18.0173V14.0118H217.444Z" fill="white"/>
<path d="M223.649 11.3053V9.81641H225.13V11.3053H223.649ZM223.649 19.9675V12.523H225.13V19.9675H223.649Z" fill="white"/>
<path d="M226.758 14.4729C226.758 14.2016 226.809 13.9485 226.914 13.7164C227.019 13.4813 227.157 13.2764 227.33 13.1015C227.504 12.9267 227.708 12.7851 227.942 12.6826C228.176 12.5801 228.428 12.5259 228.697 12.5259H230.877C231.147 12.5259 231.398 12.5771 231.632 12.6826C231.866 12.7851 232.07 12.9267 232.244 13.1015C232.418 13.2764 232.559 13.4813 232.661 13.7164C232.762 13.9515 232.816 14.2047 232.816 14.4729V18.0203C232.816 18.2916 232.765 18.5448 232.661 18.7799C232.556 19.015 232.418 19.2199 232.244 19.3947C232.07 19.5695 231.866 19.7112 231.632 19.8137C231.398 19.9191 231.147 19.9704 230.877 19.9704H228.697C228.428 19.9704 228.176 19.9191 227.942 19.8137C227.708 19.7112 227.504 19.5695 227.33 19.3947C227.157 19.2199 227.016 19.015 226.914 18.7799C226.812 18.5448 226.758 18.2916 226.758 18.0203V14.4729ZM228.913 18.4785H230.664C230.853 18.4785 231.012 18.4122 231.144 18.2826C231.276 18.153 231.338 17.9902 231.338 17.8033V14.6899C231.338 14.5 231.273 14.3403 231.144 14.2107C231.015 14.0811 230.853 14.0148 230.664 14.0148H228.913C228.724 14.0148 228.566 14.0811 228.434 14.2107C228.305 14.3403 228.239 14.503 228.239 14.6899V17.8033C228.239 17.9932 228.305 18.153 228.434 18.2826C228.563 18.4122 228.724 18.4785 228.913 18.4785Z" fill="white"/>
<path d="M235.712 12.5229L235.847 13.2825C236.027 13.0474 236.249 12.8635 236.513 12.7279C236.777 12.5923 237.067 12.526 237.382 12.526H238.485C238.755 12.526 239.007 12.5742 239.247 12.6736C239.484 12.7731 239.69 12.9118 239.867 13.0866C240.044 13.2614 240.179 13.4693 240.278 13.7105C240.377 13.9516 240.425 14.2047 240.425 14.476V19.9705H238.944V14.693C238.944 14.5031 238.878 14.3434 238.749 14.2138C238.62 14.0842 238.458 14.0179 238.269 14.0179H236.519C236.33 14.0179 236.171 14.0842 236.039 14.2138C235.91 14.3434 235.844 14.5061 235.844 14.693V19.9705H234.363V12.526H235.709L235.712 12.5229Z" fill="white"/>
<path d="M241.744 14.473C241.744 14.2017 241.795 13.9486 241.9 13.7074C242.005 13.4693 242.143 13.2614 242.316 13.0835C242.49 12.9057 242.694 12.7701 242.928 12.6706C243.162 12.5712 243.414 12.5229 243.683 12.5229H247.131V13.9425H243.899C243.71 13.9425 243.552 14.0088 243.42 14.1384C243.291 14.268 243.225 14.4308 243.225 14.6177V15.0245C243.225 15.124 243.258 15.2114 243.327 15.2898C243.393 15.3681 243.477 15.4133 243.576 15.4314L246.079 15.7569C246.268 15.7841 246.441 15.8413 246.603 15.9257C246.765 16.0101 246.903 16.1216 247.02 16.2573C247.137 16.3929 247.23 16.5466 247.296 16.7184C247.362 16.8902 247.398 17.071 247.398 17.2609V18.0174C247.398 18.2887 247.347 18.5418 247.251 18.7769C247.152 19.012 247.017 19.217 246.84 19.3918C246.663 19.5666 246.459 19.7083 246.22 19.8107C245.983 19.9162 245.728 19.9675 245.458 19.9675H241.744V18.5449H245.242C245.431 18.5449 245.59 18.4786 245.722 18.349C245.851 18.2194 245.917 18.0566 245.917 17.8697V17.4628C245.917 17.3634 245.884 17.276 245.815 17.1976C245.746 17.1193 245.665 17.074 245.566 17.056L243.063 16.7304C242.874 16.7033 242.7 16.6461 242.538 16.5617C242.376 16.4773 242.239 16.3658 242.122 16.2301C242.005 16.0945 241.912 15.9408 241.846 15.769C241.78 15.5972 241.744 15.4164 241.744 15.2265V14.467V14.473Z" fill="white"/>
<path d="M253.136 19.636C252.626 19.3466 252.233 18.9337 251.958 18.3972C251.685 17.8607 251.547 17.2218 251.547 16.4864V13.8492C251.547 13.1137 251.685 12.4778 251.958 11.9383C252.23 11.4018 252.623 10.9859 253.136 10.6965C253.645 10.4072 254.248 10.2595 254.94 10.2595C255.516 10.2595 256.035 10.3831 256.502 10.6302C256.97 10.8774 257.357 11.233 257.665 11.6972C257.974 12.1613 258.187 12.7129 258.301 13.3458H256.685C256.607 13.0384 256.481 12.7671 256.31 12.5351C256.14 12.303 255.936 12.1252 255.702 12.0046C255.468 11.881 255.213 11.8208 254.943 11.8208C254.581 11.8208 254.266 11.9021 253.999 12.0679C253.735 12.2337 253.528 12.4688 253.385 12.7732C253.241 13.0776 253.169 13.4362 253.169 13.8492V16.4864C253.169 16.8993 253.241 17.258 253.385 17.5624C253.528 17.8668 253.735 18.0989 253.999 18.2616C254.263 18.4244 254.578 18.5057 254.943 18.5057C255.219 18.5057 255.474 18.4455 255.711 18.3279C255.948 18.2104 256.149 18.0356 256.319 17.8065C256.49 17.5774 256.613 17.3032 256.688 16.9807H258.304C258.187 17.6136 257.971 18.1652 257.662 18.6293C257.354 19.0935 256.967 19.4491 256.499 19.6963C256.032 19.9434 255.513 20.067 254.943 20.067C254.251 20.067 253.648 19.9223 253.139 19.633L253.136 19.636Z" fill="white"/>
<path d="M259.968 14.4729C259.968 14.2016 260.019 13.9485 260.124 13.7164C260.229 13.4813 260.366 13.2764 260.54 13.1015C260.714 12.9267 260.918 12.7851 261.152 12.6826C261.386 12.5801 261.638 12.5259 261.907 12.5259H264.087C264.357 12.5259 264.608 12.5771 264.842 12.6826C265.076 12.7851 265.28 12.9267 265.454 13.1015C265.628 13.2764 265.769 13.4813 265.87 13.7164C265.972 13.9515 266.026 14.2047 266.026 14.4729V18.0203C266.026 18.2916 265.975 18.5448 265.87 18.7799C265.766 19.015 265.628 19.2199 265.454 19.3947C265.28 19.5695 265.076 19.7112 264.842 19.8137C264.608 19.9191 264.357 19.9704 264.087 19.9704H261.907C261.638 19.9704 261.386 19.9191 261.152 19.8137C260.918 19.7112 260.714 19.5695 260.54 19.3947C260.366 19.2199 260.226 19.015 260.124 18.7799C260.022 18.5448 259.968 18.2916 259.968 18.0203V14.4729ZM262.123 18.4785H263.874C264.063 18.4785 264.222 18.4122 264.354 18.2826C264.485 18.153 264.548 17.9902 264.548 17.8033V14.6899C264.548 14.5 264.482 14.3403 264.354 14.2107C264.225 14.0811 264.063 14.0148 263.874 14.0148H262.123C261.934 14.0148 261.775 14.0811 261.644 14.2107C261.515 14.3403 261.449 14.503 261.449 14.6899V17.8033C261.449 17.9932 261.515 18.153 261.644 18.2826C261.772 18.4122 261.934 18.4785 262.123 18.4785Z" fill="white"/>
<path d="M267.195 19.9674V18.2344H268.919V19.9674H267.195Z" fill="white"/>
<path opacity="0.2" d="M72.1545 5.14185H71.6958V44.0462H72.1545V5.14185Z" fill="white"/>
<path opacity="0.2" d="M25.9671 51.9999C33.8347 51.9999 40.2127 51.6976 40.2127 51.3248C40.2127 50.9519 33.8347 50.6497 25.9671 50.6497C18.0994 50.6497 11.7214 50.9519 11.7214 51.3248C11.7214 51.6976 18.0994 51.9999 25.9671 51.9999Z" fill="white"/>
<path d="M87.6649 28.5906L87.7309 28.6539L87.7968 28.5906C88.0007 28.4007 88.1476 28.2078 88.3484 27.9215L88.3664 27.8974C88.5853 28.0842 88.7951 28.2741 89.029 28.4972L89.0949 28.5605L89.1609 28.4972C89.3647 28.3073 89.5116 28.1144 89.7125 27.8281L89.7574 27.7618L89.7035 27.7045C89.3947 27.3699 89.1579 27.1469 88.8881 26.9329L88.8191 26.8787L88.7591 26.942C88.6212 27.0866 88.4114 27.3217 88.1926 27.6261V27.6322C87.9497 27.385 87.7489 27.2012 87.527 27.0263L87.4581 26.9721L87.3981 27.0354C87.2063 27.2373 87.0054 27.4784 86.8315 27.7196L86.7776 27.7949L86.8465 27.8522C87.1253 28.0843 87.3801 28.3103 87.6679 28.5876L87.6649 28.5906Z" fill="white"/>
<path d="M100.918 35.785L100.849 35.7307L100.789 35.794C100.598 35.9959 100.394 36.2401 100.223 36.4782V36.4842C99.983 36.2371 99.7822 36.0532 99.5573 35.8784L99.4884 35.8241L99.4284 35.8874C99.2366 36.0894 99.0357 36.3305 98.8618 36.5716L98.8079 36.647L98.8768 36.7042C99.1586 36.9363 99.4104 37.1654 99.6982 37.4396L99.7642 37.5029L99.8301 37.4396C100.034 37.2498 100.181 37.0569 100.382 36.7705L100.4 36.7464C100.622 36.9333 100.831 37.1262 101.062 37.3462L101.128 37.4095L101.194 37.3462C101.398 37.1563 101.545 36.9664 101.746 36.6771L101.791 36.6108L101.737 36.5535C101.428 36.219 101.191 35.9959 100.921 35.7819L100.918 35.785Z" fill="white"/>
<path d="M109.228 30.8631L109.291 30.9234L109.357 30.8661C109.594 30.6612 109.792 30.4261 109.963 30.1458L110.002 30.0825L109.951 30.0282C109.666 29.7268 109.375 29.4676 109.09 29.2566L109.018 29.2024L108.958 29.2717C108.755 29.5068 108.554 29.772 108.383 30.0011L108.329 30.0734L108.557 30.2663C108.788 30.4622 109.006 30.6491 109.228 30.8601V30.8631Z" fill="white"/>
<path d="M119.241 30.9987C118.917 30.9987 118.602 31.1434 118.279 31.4418C117.997 31.7492 117.814 32.0506 117.733 32.3399C117.505 33.1386 117.149 33.5244 116.639 33.5244H110.703C110.367 33.5244 110.107 33.44 109.888 33.2622C109.756 33.1567 109.693 32.991 109.693 32.7498C109.693 32.5991 109.75 32.2947 109.846 31.9511L109.861 31.8999L109.726 31.7432L109.138 32.1712L108.926 32.9729C108.83 33.3345 108.29 33.5244 107.804 33.5244H101.869C101.533 33.5244 101.272 33.44 101.053 33.2622C100.921 33.1567 100.858 32.991 100.858 32.7498C100.858 32.5991 100.915 32.2947 101.011 31.9511L101.026 31.8999L100.891 31.7432L100.304 32.1712L100.091 32.9729C99.9951 33.3345 99.4555 33.5244 98.9698 33.5244H90.1652C89.8325 33.5244 89.6106 33.4732 89.4877 33.3647C89.3019 33.2019 89.2599 32.8885 89.2539 32.4364C89.2479 32.0657 89.2449 31.695 89.2419 31.3212C89.2359 30.6009 89.2299 29.8564 89.2119 29.124V29.0276H88.9991L88.9721 29.0517C88.8012 29.2054 88.6153 29.3983 88.4055 29.6424L88.3785 29.6726L88.4175 30.1819C87.2154 30.8571 86.4809 31.499 86.1781 32.1501C86.0132 32.5178 85.9353 32.795 85.9353 33.0211C85.9353 33.6028 86.4509 33.9494 87.3173 33.9494C87.776 33.9494 88.1957 33.862 88.6603 33.6691C88.9811 34.504 89.5776 34.6245 90.1802 34.6245H98.9488C99.5634 34.6245 100.091 34.3804 100.364 33.9765C100.625 34.4105 101.107 34.6245 101.839 34.6245H107.789C108.404 34.6245 108.932 34.3804 109.204 33.9765C109.465 34.4105 109.948 34.6245 110.679 34.6245H116.615C117.259 34.6245 117.688 34.3261 117.898 33.7324C118.647 34.2749 119.331 34.5401 119.984 34.5401C120.392 34.5401 120.677 34.2056 120.827 33.5485V33.5335V33.5184C120.713 32.2616 120.179 30.9927 119.247 30.9927L119.241 30.9987ZM120.074 33.437C120.056 33.4431 120.02 33.4491 119.955 33.4491C119.727 33.4491 119.472 33.3858 119.151 33.2502C118.713 33.0663 118.414 32.8553 118.231 32.6052C118.414 32.2194 118.701 32.0174 119.064 32.0174C119.427 32.0174 119.865 32.3912 120.074 33.437ZM87.5541 32.8885C87.0715 32.8885 86.7477 32.7679 86.7477 32.5871C86.7477 32.4062 86.9755 31.9873 88.4715 31.1916L88.5014 32.7137C88.1207 32.8312 87.8269 32.8855 87.5541 32.8855V32.8885Z" fill="white"/>
<path d="M123.366 27.2041L123.39 27.171C123.489 27.0293 123.582 26.8635 123.675 26.6737L123.684 26.5049L123.582 26.5109C123.36 26.523 123.111 26.541 122.868 26.541C122.425 26.541 121.954 26.4175 121.954 26.1914C121.969 26.1462 122.143 26.0347 122.353 26.0347C122.431 26.0347 122.509 26.0407 122.545 26.0528C122.569 26.0588 122.62 26.098 122.71 26.2788L122.752 26.3331H122.856L122.886 26.2969C122.991 26.1703 123.135 25.9985 123.135 25.7725C123.135 25.5464 122.949 25.3264 122.593 25.3264C122.296 25.3264 121.945 25.4922 121.672 25.7574C121.45 25.9624 121.31 26.2366 121.31 26.4536C121.31 26.7339 121.468 26.96 121.747 27.0956C121.669 27.1499 121.597 27.2192 121.546 27.2795L121.349 27.6291L121.441 27.7707L121.516 27.7376C122.044 27.4965 122.653 27.3217 123.327 27.2132L123.369 27.2071L123.366 27.2041Z" fill="white"/>
<path d="M126.064 27.412C126.064 27.3668 126.07 27.3216 126.076 27.2764L126.085 27.2161L125.92 27.1016L125.863 27.1588C125.704 27.3125 125.554 27.4572 125.438 27.623C125.324 27.7737 125.27 27.9515 125.27 28.1866C125.27 28.3735 125.294 28.6085 125.315 28.8376C125.333 29.0034 125.348 29.1661 125.354 29.3048C125.483 30.6339 125.536 31.4869 125.536 32.165C125.536 32.6593 125.396 33.0391 125.117 33.2923C125.093 32.8733 124.988 32.4966 124.805 32.168C124.526 31.6707 124.145 31.083 123.747 30.4591C123.555 30.1607 123.354 29.8503 123.153 29.5278L123.387 29.1089L123.333 29.0576C122.862 28.5935 122.455 28.1806 122.191 27.8249L122.155 27.7767L122.02 27.8038L121.996 27.837C121.996 27.837 121.654 28.3463 121.654 28.5724C121.654 28.8105 121.843 29.1722 122.371 29.9498C122.554 30.218 122.731 30.4772 122.898 30.7213C123.258 31.2458 123.6 31.7431 123.909 32.2193C124.265 32.7648 124.607 33.2832 124.679 33.5635C123.993 33.9614 122.958 34.2567 121.609 34.4376L121.525 34.4496V34.6847L121.594 34.7058C122.131 34.8776 122.719 35.0373 123.369 35.0373C123.963 35.0373 124.7 34.7872 125.201 34.4135C125.572 34.1392 125.809 33.7775 126.019 33.1657C126.169 32.7015 126.256 32.1861 126.256 31.7491C126.256 30.9715 126.238 30.1758 126.202 29.2505C126.355 29.145 126.49 29.0275 126.601 28.922L126.658 28.8677L126.616 28.7984C126.34 28.3463 126.058 27.8279 126.058 27.409L126.064 27.412Z" fill="white"/>
<path d="M128.51 27.3186L128.333 27.2583L128.291 27.2975C128.064 27.5054 127.785 27.8068 127.587 28.063L127.563 28.0932V28.1323C127.626 28.7804 127.821 31.0107 127.821 32.5388V33.235C127.821 33.6811 127.815 34.1934 127.743 34.6395L127.731 34.7088L127.95 34.8264L128.001 34.7691C128.402 34.323 128.624 34.0005 128.648 33.5726C128.69 33.2049 128.699 32.7256 128.699 32.3911C128.699 30.2843 128.639 28.6929 128.516 27.3819L128.51 27.3186Z" fill="white"/>
<path d="M138.103 29.35C138.283 29.2204 138.427 29.0999 138.553 28.9733L138.61 28.916L138.568 28.8497C138.184 28.253 137.989 27.7195 137.989 27.2614V27.1981L137.828 27.1257L137.783 27.1649C137.582 27.3367 137.435 27.4874 137.345 27.6261C137.195 27.8159 137.174 28.036 137.174 28.2469C137.174 28.4669 137.195 28.69 137.213 28.907C137.222 29.0004 137.231 29.0939 137.237 29.1843C137.363 30.9595 137.42 32.1832 137.42 33.1476C137.42 33.2803 137.414 33.4189 137.402 33.5575C137.276 33.7776 137.033 33.9825 136.676 34.1694C136.308 34.3894 135.924 34.4949 135.504 34.4949C135.022 34.4949 134.626 34.308 134.359 33.9584C134.131 33.663 134.02 33.3225 134.02 32.9186C134.02 32.5599 134.113 32.1681 134.308 31.722L134.35 31.6286L133.915 31.4598L133.876 31.5412C133.547 32.2374 133.394 32.8191 133.394 33.3737C133.394 34.079 133.571 34.6396 133.918 35.0434C134.284 35.4654 134.818 35.6884 135.459 35.6884C135.978 35.6884 136.55 35.5166 136.988 35.2273C137.354 34.9922 137.621 34.73 137.834 34.3804C138.184 33.3556 138.184 32.7498 138.184 32.2615C138.184 31.4538 138.145 30.4893 138.112 29.6394L138.1 29.347L138.103 29.35Z" fill="white"/>
<path d="M165.914 27.2675V27.2132L165.758 27.1047L165.701 27.156C165.545 27.2916 165.404 27.4333 165.305 27.5538C165.152 27.7256 165.069 27.9125 165.069 28.0933C165.069 28.2862 165.093 28.4881 165.116 28.7082C165.125 28.7986 165.131 28.895 165.143 28.9945C165.269 30.4382 165.335 31.6408 165.344 32.6715C165.344 33.0031 165.239 33.2261 165.021 33.3527C164.724 33.5124 164.481 33.5335 164.277 33.5335H163.926C163.177 33.5335 162.799 33.2954 162.775 32.8011V32.7348L162.736 32.7228C162.916 32.6746 163.153 32.6414 163.456 32.6414H163.51L163.977 31.8638L164.001 31.7854L163.92 31.7041H163.267C162.877 31.7041 162.46 31.6227 162.092 31.472C161.069 31.0651 160.278 30.8541 159.738 30.8541C158.824 30.8541 158.171 31.4057 158.114 32.2255V32.2436L158.488 33.2653H158.698L158.938 32.5329L158.86 32.2014C159.043 32.0145 159.313 31.915 159.648 31.915C160.194 31.915 160.854 32.0567 161.663 32.346C160.278 33.1628 159.169 33.5305 158.09 33.5305H151.911C151.009 33.5305 150.961 32.9368 150.961 32.8192C150.961 30.5768 150.952 28.8649 150.82 27.2313V27.1741L150.664 27.1108L149.96 27.8251L149.984 28.2229C150.091 29.9288 150.166 31.1525 150.166 32.557C150.166 33.0844 150.019 33.2412 149.879 33.3226C149.696 33.425 149.396 33.5305 149.105 33.5305H149.063H146.236H142.768C142.558 32.1501 141.892 31.1585 141.164 31.1585C140.732 31.1585 140.316 31.4147 139.998 31.8819C139.743 32.2436 139.62 32.6354 139.62 33.0814C139.62 34.1122 140.385 34.6336 141.892 34.6336H142.105C142.003 34.9109 141.802 35.155 141.503 35.4625C140.882 36.1014 140.262 36.4119 139.608 36.4119C139.242 36.4119 138.919 36.3335 138.616 36.1677L138.529 36.1195L138.322 36.5234L138.4 36.5716C139.185 37.0569 139.887 37.304 140.486 37.304C140.885 37.304 141.701 36.9122 142.27 36.0472C142.555 35.6162 142.759 35.0857 142.813 34.6336H149.06H149.084C149.663 34.6336 150.16 34.3865 150.454 33.9615C150.706 34.4046 151.189 34.6336 151.854 34.6336H157.976C159.103 34.6336 160.104 34.3292 161.129 33.6661L162.308 32.8916C162.344 32.8735 162.382 32.8494 162.436 32.8222L162.305 32.9127V32.9548C162.287 33.0995 162.281 33.2291 162.281 33.3647C162.281 33.9434 162.559 34.6306 163.896 34.6306H164.223C164.532 34.6306 164.877 34.5492 165.149 34.4076C165.515 34.2237 165.698 33.8801 165.839 33.5396C166.037 33.1236 166.13 32.545 166.13 31.7161C166.13 31.2037 166.103 30.6552 166.076 30.1247C166.064 29.8474 166.049 29.5702 166.04 29.2989C166.196 29.1844 166.331 29.0729 166.454 28.9583L166.507 28.9041L166.469 28.8378C166.079 28.1928 165.896 27.6774 165.911 27.2645L165.914 27.2675ZM142.081 33.5275C141.68 33.5275 141.299 33.5185 140.957 33.425C140.486 33.2864 140.259 33.0875 140.259 32.8162C140.259 32.5962 140.612 32.2888 140.96 32.2888C141.191 32.2888 141.425 32.4153 141.638 32.6535C141.838 32.8735 141.997 33.1869 142.081 33.5275Z" fill="white"/>
<path d="M168.354 27.3156L168.174 27.2583L168.132 27.2975C167.901 27.5054 167.626 27.8068 167.428 28.06L167.404 28.0902V28.1293C167.467 28.7773 167.662 31.0077 167.662 32.5358V33.232C167.662 33.6781 167.659 34.1904 167.587 34.6365L167.575 34.7058L167.794 34.8234L167.847 34.7691C168.249 34.323 168.471 33.9975 168.492 33.5726C168.531 33.2049 168.54 32.7226 168.54 32.3881C168.54 30.2843 168.483 28.6929 168.357 27.3789V27.3156H168.354Z" fill="white"/>
<path d="M174.935 28.5905L175 28.6538L175.066 28.5905C175.267 28.3976 175.417 28.2077 175.615 27.9214L175.633 27.8943C175.852 28.0872 176.062 28.274 176.296 28.4971L176.361 28.5604L176.427 28.4971C176.634 28.3102 176.778 28.1143 176.979 27.828L177.021 27.7647L176.967 27.7074C176.658 27.3699 176.421 27.1468 176.155 26.9358L176.086 26.8816L176.023 26.9449C175.888 27.0896 175.678 27.3246 175.456 27.6291V27.6381C175.216 27.3879 175.015 27.2041 174.791 27.0293L174.722 26.975L174.665 27.0413C174.47 27.2403 174.269 27.4844 174.098 27.7255L174.044 27.8009L174.113 27.8581C174.392 28.0902 174.647 28.3162 174.938 28.5935L174.935 28.5905Z" fill="white"/>
<path d="M186.005 31.0018C185.682 31.0018 185.37 31.1435 185.043 31.4449C184.764 31.7493 184.575 32.0537 184.497 32.343C184.273 33.1417 183.913 33.5275 183.403 33.5275H177.426C177.096 33.5275 176.874 33.4763 176.748 33.3678C176.562 33.202 176.517 32.8916 176.514 32.4365C176.511 32.0718 176.505 31.7101 176.502 31.3454C176.493 30.619 176.49 29.8625 176.472 29.1271V29.0337H176.259L176.232 29.0578C176.062 29.2115 175.879 29.4014 175.666 29.6485L175.642 29.6787L175.681 30.1911C174.479 30.8632 173.747 31.5082 173.441 32.1592C173.28 32.5269 173.202 32.8012 173.202 33.0272C173.202 33.6089 173.72 33.9585 174.587 33.9585C175.045 33.9585 175.462 33.8711 175.93 33.6782C176.247 34.5161 176.844 34.6336 177.447 34.6336H183.376C184.018 34.6336 184.449 34.3353 184.659 33.7415C185.409 34.284 186.095 34.5523 186.746 34.5523C187.153 34.5523 187.438 34.2147 187.591 33.5577V33.5426L187.594 33.5275C187.477 32.2707 186.944 31.0048 186.011 31.0048L186.005 31.0018ZM174.82 32.8916C174.338 32.8916 174.014 32.771 174.014 32.5902C174.014 32.4093 174.239 31.9874 175.738 31.1947L175.768 32.7198C175.387 32.8373 175.09 32.8916 174.817 32.8916H174.82ZM186.719 33.4522C186.488 33.4522 186.233 33.3889 185.912 33.2532C185.478 33.0724 185.172 32.8584 184.989 32.6113C185.175 32.2255 185.463 32.0205 185.825 32.0205C186.188 32.0205 186.623 32.3973 186.836 33.4401C186.818 33.4431 186.782 33.4522 186.716 33.4522H186.719Z" fill="white"/>
<path d="M227.795 31.0018C227.471 31.0018 227.159 31.1435 226.833 31.4449C226.554 31.7493 226.365 32.0537 226.287 32.343C226.062 33.1417 225.702 33.5275 225.193 33.5275H219.257C218.921 33.5275 218.661 33.4462 218.445 33.2653C218.313 33.1598 218.247 32.991 218.247 32.7529C218.247 32.6053 218.304 32.2948 218.4 31.9542L218.415 31.903L218.28 31.7463L217.692 32.1712L217.479 32.973C217.386 33.3376 216.844 33.5245 216.358 33.5245H210.276C210.039 33.5245 209.847 33.5155 209.709 33.5064C209.877 33.205 210.018 32.8765 210.018 32.5359C210.018 31.5353 209.196 30.6914 208.231 30.6914C207.784 30.6914 207.275 30.8451 206.867 31.0983C206.486 31.3303 206.073 31.6739 205.611 32.1411C205.698 31.8216 205.737 31.472 205.737 31.0621C205.737 30.2755 205.707 29.4828 205.674 28.8046L206.163 28.4249L206.115 28.3495C205.722 27.7106 205.527 27.2193 205.527 26.8395V26.8003L205.392 26.6587L205.326 26.7099C204.973 26.9812 204.736 27.2374 204.736 27.6051C204.736 27.8372 204.76 28.1024 204.778 28.3103C204.847 29.0548 204.952 30.601 204.952 31.5594C204.952 32.2828 204.94 32.5872 204.856 32.9277L204.361 33.5215H192.064C191.854 32.1411 191.189 31.1525 190.46 31.1525C190.028 31.1525 189.612 31.4057 189.294 31.8729C189.036 32.2375 188.916 32.6264 188.916 33.0724C188.916 34.1062 189.678 34.6246 191.189 34.6246H191.401C191.299 34.9049 191.099 35.149 190.799 35.4535C190.175 36.0954 189.558 36.4029 188.904 36.4029C188.542 36.4029 188.215 36.3245 187.912 36.1617L187.825 36.1135L187.618 36.5174L187.696 36.5656C188.482 37.0509 189.183 37.298 189.783 37.298C190.178 37.298 190.997 36.9062 191.563 36.0412C191.848 35.6102 192.052 35.0797 192.109 34.6246H204.412C206.094 34.6246 207.233 34.5583 208.093 34.4016C208.834 34.5553 209.583 34.6246 210.381 34.6246H216.34C216.955 34.6246 217.479 34.3835 217.755 33.9796C218.013 34.4136 218.499 34.6246 219.224 34.6246H225.16C225.801 34.6246 226.233 34.3262 226.443 33.7325C227.192 34.275 227.879 34.5432 228.529 34.5432C228.937 34.5432 229.222 34.2057 229.375 33.5486V33.5336L229.378 33.5185C229.261 32.2617 228.727 30.9958 227.795 30.9958V31.0018ZM190.253 33.4281C189.783 33.2924 189.552 33.0905 189.552 32.8192C189.552 32.5992 189.906 32.2918 190.253 32.2918C190.487 32.2918 190.721 32.4184 190.931 32.6565C191.132 32.8795 191.293 33.193 191.377 33.5336C190.973 33.5336 190.592 33.5245 190.253 33.4311V33.4281ZM205.668 33.5305H205.236C206.235 32.4666 206.999 31.8578 207.85 31.8578C208.609 31.8578 209.199 32.4365 209.223 32.9398C208.816 33.5305 206.453 33.5305 205.668 33.5305ZM228.508 33.4522C228.278 33.4522 228.023 33.3889 227.708 33.2533H227.705C227.27 33.0724 226.964 32.8584 226.782 32.6113C226.967 32.2255 227.255 32.0205 227.618 32.0205C227.981 32.0205 228.415 32.3973 228.628 33.4401C228.61 33.4431 228.574 33.4522 228.508 33.4522Z" fill="white"/>
<path d="M207.68 29.8745L207.743 29.9378L207.809 29.8805C208.045 29.6786 208.243 29.4435 208.414 29.1602L208.453 29.0969L208.402 29.0426C208.117 28.7412 207.827 28.479 207.542 28.271L207.467 28.2168L207.41 28.2831C207.209 28.5182 207.005 28.7834 206.834 29.0155L206.78 29.0908L207.011 29.2868C207.242 29.4827 207.458 29.6665 207.68 29.8775V29.8745Z" fill="white"/>
<path d="M217.782 30.8631L217.845 30.9204L217.911 30.8661C218.151 30.6642 218.346 30.423 218.517 30.1458L218.556 30.0795L218.505 30.0252C218.217 29.7238 217.929 29.4616 217.644 29.2536L217.569 29.2024L217.512 29.2687C217.312 29.5038 217.108 29.769 216.937 29.9951L216.883 30.0704L217.108 30.2633C217.338 30.4622 217.56 30.6461 217.779 30.8631H217.782Z" fill="white"/>
<path d="M235.937 28.5905L236.003 28.6538L236.069 28.5905C236.27 28.3976 236.42 28.2077 236.62 27.9214L236.635 27.8943C236.857 28.0872 237.067 28.274 237.298 28.4971L237.364 28.5604L237.43 28.4971C237.637 28.3102 237.784 28.1143 237.981 27.828L238.023 27.7647L237.973 27.7074C237.661 27.3699 237.424 27.1468 237.157 26.9358L237.088 26.8816L237.025 26.9449C236.89 27.0896 236.68 27.3246 236.462 27.6291V27.6381C236.222 27.3879 236.018 27.2041 235.793 27.0293L235.727 26.975L235.664 27.0413C235.472 27.2403 235.271 27.4844 235.098 27.7255L235.047 27.8009L235.116 27.8581C235.391 28.0902 235.649 28.3162 235.937 28.5935V28.5905Z" fill="white"/>
<path d="M250.378 32.4063C250.378 31.5172 249.421 30.5286 248.588 29.8415L248.771 29.4617L247.716 29.0518C248.495 28.7142 249.19 28.4369 249.838 28.2109C250.216 28.0753 250.605 27.9577 250.965 27.8643L251.004 27.8553L251.022 27.8251C251.193 27.5629 251.388 27.2585 251.556 26.942L251.586 26.8848L251.454 26.728L251.391 26.7461C249.688 27.3067 248.387 27.7618 247.575 28.1747C247.29 28.3194 247.116 28.4641 247.008 28.6449C246.888 28.8529 246.834 29.0096 246.834 29.1482C246.834 29.4918 246.927 29.7299 247.125 29.8806C248.444 30.9084 249.011 31.5715 249.232 31.8699C249.43 32.1471 249.7 32.551 249.7 32.8735C249.697 32.9006 249.625 33.0091 249.358 33.1749C248.852 33.4914 248.114 33.5306 247.524 33.5306H238.434C238.099 33.5306 237.877 33.4793 237.754 33.3708C237.568 33.205 237.529 32.8946 237.52 32.4395C237.517 32.0748 237.511 31.7131 237.508 31.3484C237.505 30.6221 237.496 29.8656 237.478 29.1302V29.0367H237.268L237.241 29.0608C237.07 29.2146 236.884 29.4044 236.675 29.6516L236.648 29.6817L236.687 30.1941C235.484 30.8662 234.753 31.5112 234.45 32.1622C234.282 32.5299 234.204 32.8042 234.204 33.0302C234.204 33.6119 234.723 33.9616 235.589 33.9616C236.048 33.9616 236.465 33.8741 236.932 33.6813C237.25 34.5191 237.85 34.6367 238.449 34.6367H247.368C248.57 34.6367 249.37 34.4227 249.901 33.9495C250.21 33.636 250.381 33.0724 250.381 32.4124L250.378 32.4063ZM235.829 32.8916C235.347 32.8916 235.02 32.771 235.02 32.5902C235.02 32.4094 235.251 31.9874 236.743 31.1947L236.773 32.7198C236.393 32.8373 236.096 32.8916 235.829 32.8916Z" fill="white"/>
<path d="M266.674 29.561L266.74 29.6243L266.809 29.567C267.009 29.3741 267.159 29.1842 267.357 28.8979L267.405 28.8316L267.351 28.7743C267.039 28.4367 266.806 28.2137 266.536 28.0027L266.467 27.9485L266.41 28.0148C266.269 28.1564 266.059 28.3946 265.843 28.699L265.789 28.7743L265.858 28.8316C266.137 29.0637 266.392 29.2897 266.68 29.564L266.674 29.561Z" fill="white"/>
<path d="M266.293 31.0742L266.359 31.1374L266.428 31.0742C266.629 30.8813 266.779 30.6944 266.976 30.4051L266.991 30.3809C267.213 30.5678 267.423 30.7607 267.657 30.9807L267.723 31.047L267.789 30.9837C267.99 30.7908 268.134 30.607 268.34 30.3146L268.382 30.2483L268.328 30.1911C268.02 29.8595 267.783 29.6365 267.513 29.4195L267.447 29.3652L267.384 29.4315C267.189 29.6305 266.991 29.8746 266.817 30.1157H266.814C266.578 29.8746 266.38 29.6907 266.152 29.5129L266.083 29.4587L266.026 29.522C265.831 29.7239 265.63 29.968 265.459 30.2061L265.406 30.2815L265.474 30.3387C265.753 30.5738 266.008 30.7999 266.296 31.0742H266.293Z" fill="white"/>
<path d="M268.889 31.4778L268.88 31.4296L268.736 31.3542L268.685 31.3964C268.454 31.5893 268.238 31.8124 268.041 32.0444L268.011 32.0836L268.023 32.1319C268.137 32.6593 268.193 33.0391 268.193 33.2591C268.193 33.4791 267.963 33.4821 267.918 33.4821C267.609 33.4821 267.279 33.2319 267.279 32.7618C267.279 32.5689 267.315 32.3067 267.369 32.0897L267.384 32.0233L267.237 31.9269L266.728 32.2253L266.647 32.4965C266.491 33.036 266.446 33.1958 266.254 33.3405C266.086 33.458 265.873 33.5273 265.678 33.5273C265.51 33.5273 265.409 33.4309 265.409 33.2681C265.409 33.0722 265.633 32.6864 265.876 32.2976L265.912 32.2404L265.798 32.0957L265.157 32.3217L264.752 32.9095C264.461 33.3284 264.024 33.5183 263.34 33.5273H254.493C253.744 33.5273 253.399 33.03 252.995 32.0535L252.965 31.9842L252.794 32.0113L252.77 32.0535C252.626 32.3308 252.5 32.596 252.377 32.8823L252.362 32.9245L252.38 32.9637C252.515 33.253 252.698 33.6057 253.004 34.0397C253.093 34.1572 253.147 34.2537 253.171 34.314C253.013 35.2814 251.849 36.3333 250.926 36.3333C250.617 36.3333 250.359 36.2851 250.156 36.1887L250.066 36.1404L249.883 36.5594L249.964 36.6016C250.446 36.8608 251.154 37.1682 251.771 37.1682C252.389 37.1682 253.013 36.6468 253.546 35.7064C253.729 35.3779 253.843 34.9409 253.843 34.5581C253.843 34.534 253.843 34.5159 253.84 34.4918C254.008 34.5882 254.209 34.6334 254.475 34.6334H263.223C263.85 34.6334 264.332 34.4647 264.689 34.1181C264.779 34.4586 265.031 34.6334 265.432 34.6334C265.894 34.6334 266.308 34.4406 266.689 34.0457C266.964 34.4044 267.294 34.6123 267.606 34.6123C268.014 34.6123 268.415 34.32 268.739 33.7805C268.868 33.5303 269.003 33.1054 269.003 32.7588C269.003 32.4122 268.964 31.945 268.889 31.4808V31.4778Z" fill="white"/>
<path d="M28.4013 22.5023C28.0416 23.087 27.487 23.8797 26.6985 24.7236C26.027 25.4349 25.1876 26.1763 24.2164 26.8786C24.1564 26.7309 24.0994 26.6405 24.0994 26.6405C21.6113 22.3606 13.4422 23.1955 10.4204 23.6717C12.5429 22.9001 17.3304 21.0797 21.6382 18.6746C24.4082 19.6812 26.8664 20.9411 28.4013 22.5023Z" fill="url(#paint0_linear_236_3316)"/>
<path d="M30.0531 26.0948C30.0531 34.3109 9.29023 39.8355 9.29023 39.8355V42.4667L0 36.1012L9.28723 29.7387V32.2795C14.0807 31.7822 17.4113 30.2963 19.6717 29.3921C19.8935 29.3047 20.1123 29.2143 20.3282 29.1179C20.5051 29.0425 20.6819 28.9702 20.8498 28.8798C21.0057 28.8044 21.1526 28.7321 21.2995 28.6567C21.3444 28.6417 21.3864 28.6206 21.4314 28.5814C22.4327 28.078 23.377 27.4933 24.2164 26.8785C25.1876 26.1762 26.027 25.4348 26.6985 24.7235C27.487 23.8796 28.0386 23.0869 28.4013 22.5022C29.4385 23.5601 30.0501 24.7536 30.0501 26.0948H30.0531Z" fill="url(#paint1_linear_236_3316)"/>
<path d="M28.5063 6.46199C28.1526 7.06779 27.571 7.93582 26.7017 8.86111C25.4935 10.136 23.7398 11.5134 21.6923 12.5924C23.518 11.5857 24.3364 11.0312 24.3364 11.0312C23.527 8.26434 19.0812 7.46262 15.229 7.45057C12.0573 7.43851 9.28735 8.01117 9.28735 8.01117V1.81746C11.0021 1.6095 17.0787 1.3503 21.5904 2.48355C25.4126 3.445 27.8199 5.73863 28.5034 6.45897L28.5063 6.46199Z" fill="url(#paint2_linear_236_3316)"/>
<path d="M30.0532 9.94313C30.0532 13.1138 26.099 16.2001 21.6413 18.6746C17.3334 21.0828 12.5459 22.9032 10.4235 23.6718H10.4085C9.70998 23.7833 9.29028 23.8707 9.29028 23.8707V15.8204C9.42219 15.8053 9.55409 15.7902 9.68899 15.7752C14.2697 15.2718 17.4743 14.3978 19.6777 13.5177C20.0614 13.37 20.4362 13.2073 20.8049 13.0355C20.9608 12.9601 21.1137 12.8878 21.2606 12.8124C21.4075 12.7461 21.5543 12.6647 21.6952 12.5894C21.8122 12.5291 21.9231 12.4628 22.04 12.3965C23.9406 11.3537 25.5594 10.0577 26.7016 8.8581C27.571 7.93281 28.1525 7.06479 28.5063 6.45898C29.4776 7.48976 30.0532 8.64411 30.0532 9.94012V9.94313Z" fill="url(#paint3_linear_236_3316)"/>
<path d="M48.6066 19.6691C48.6066 19.6691 47.8481 22.0682 44.5415 24.7416C42.8388 18.9669 30.5537 21.8452 30.5537 21.8452V21.8392C30.5537 21.8392 30.5687 21.809 30.6137 21.7427C30.9524 21.1942 32.844 18.3219 37.023 15.5731C37.023 15.5731 37.029 15.5671 37.038 15.5671C37.1249 15.5309 37.1849 15.5159 37.1939 15.5068C39.1245 15.5822 45.216 15.9589 48.6096 19.6691H48.6066Z" fill="url(#paint4_linear_236_3316)"/>
<path d="M28.9468 40.2155V30.9506C36.8581 29.6033 41.6606 27.0716 44.5385 24.7388C47.8451 22.0654 48.6035 19.6663 48.6035 19.6663C56.8835 29.9379 28.9438 40.2155 28.9438 40.2155H28.9468Z" fill="url(#paint5_linear_236_3316)"/>
<path d="M49.9857 12.6918V10.7508C49.9857 10.7508 49.9048 10.7659 49.7489 10.796C49.6979 10.8021 49.632 10.8171 49.557 10.8322C47.0149 11.2481 44.7695 11.8841 42.8029 12.6406C42.7729 12.6466 42.752 12.6617 42.722 12.6707C40.9113 13.3006 39.1576 14.0632 38.0004 14.9583C37.6677 15.1572 37.3439 15.3592 37.0351 15.5641C37.0291 15.5641 37.0201 15.5702 37.0201 15.5702C32.8442 18.3189 30.9496 21.1912 30.6108 21.7398C30.5658 21.8061 30.5509 21.8362 30.5509 21.8362C22.3039 11.655 49.9857 1.81441 49.9857 1.81441V0L59.2519 6.34742L49.9857 12.6948V12.6918Z" fill="url(#paint6_linear_236_3316)"/>
<path d="M49.6827 39.9472H49.308L48.6215 39.0791H48.2917V39.9472H48.0039V37.7681H48.5645C48.6904 37.7681 48.7923 37.7741 48.8763 37.7892C48.9602 37.8042 49.0411 37.8344 49.1161 37.8856C49.191 37.9338 49.251 37.9971 49.296 38.0755C49.3409 38.1539 49.3619 38.2473 49.3619 38.3618C49.3619 38.5216 49.3199 38.6572 49.242 38.7627C49.1611 38.8712 49.0531 38.9495 48.9122 39.0008L49.6827 39.9502V39.9472ZM49.0591 38.3799C49.0591 38.3166 49.0471 38.2593 49.0262 38.2111C49.0052 38.1629 48.9692 38.1207 48.9212 38.0906C48.8793 38.0634 48.8343 38.0454 48.7773 38.0333C48.7234 38.0212 48.6544 38.0152 48.5735 38.0152H48.2887V38.838H48.5405C48.6245 38.838 48.6964 38.832 48.7624 38.8169C48.8283 38.8019 48.8853 38.7717 48.9302 38.7265C48.9722 38.6843 49.0022 38.6361 49.0232 38.5788C49.0441 38.5216 49.0531 38.4553 49.0531 38.3799H49.0591Z" fill="white"/>
<path d="M48.6066 40.9327C47.4674 40.9327 46.5381 39.9984 46.5381 38.8531C46.5381 37.7078 47.4674 36.7734 48.6066 36.7734C49.7457 36.7734 50.6751 37.7078 50.6751 38.8531C50.6751 39.9984 49.7457 40.9327 48.6066 40.9327ZM48.6066 37.0387C47.6113 37.0387 46.8019 37.8524 46.8019 38.8531C46.8019 39.8537 47.6113 40.6675 48.6066 40.6675C49.6019 40.6675 50.4113 39.8537 50.4113 38.8531C50.4113 37.8524 49.6019 37.0387 48.6066 37.0387Z" fill="white"/>
</g>
<defs>
<linearGradient id="paint0_linear_236_3316" x1="23.359" y1="28.2138" x2="14.2386" y2="16.4977" gradientUnits="userSpaceOnUse">
<stop offset="0.03" stop-color="#808080"/>
<stop offset="1" stop-color="#CCCCCC"/>
</linearGradient>
<linearGradient id="paint1_linear_236_3316" x1="3.42351" y1="41.0019" x2="28.9801" y2="23.1558" gradientUnits="userSpaceOnUse">
<stop stop-color="#CCCCCC"/>
<stop offset="1" stop-color="#F2F2F2"/>
</linearGradient>
<linearGradient id="paint2_linear_236_3316" x1="28.923" y1="12.5201" x2="9.31556" y2="1.64188" gradientUnits="userSpaceOnUse">
<stop offset="0.03" stop-color="#808080"/>
<stop offset="1" stop-color="#CCCCCC"/>
</linearGradient>
<linearGradient id="paint3_linear_236_3316" x1="8.87359" y1="21.4173" x2="28.2375" y2="9.40965" gradientUnits="userSpaceOnUse">
<stop stop-color="#CCCCCC"/>
<stop offset="1" stop-color="#F2F2F2"/>
</linearGradient>
<linearGradient id="paint4_linear_236_3316" x1="32.5592" y1="15.8504" x2="46.4013" y2="25.1128" gradientUnits="userSpaceOnUse">
<stop offset="0.03" stop-color="#808080"/>
<stop offset="1" stop-color="#CCCCCC"/>
</linearGradient>
<linearGradient id="paint5_linear_236_3316" x1="28.8809" y1="37.9008" x2="46.5748" y2="23.5209" gradientUnits="userSpaceOnUse">
<stop stop-color="#CCCCCC"/>
<stop offset="1" stop-color="#F2F2F2"/>
</linearGradient>
<linearGradient id="paint6_linear_236_3316" x1="29.4926" y1="20.3594" x2="56.0751" y2="1.79806" gradientUnits="userSpaceOnUse">
<stop stop-color="#CCCCCC"/>
<stop offset="1" stop-color="#F2F2F2"/>
</linearGradient>
<clipPath id="clip0_236_3316">
<rect width="269" height="52" fill="white"/>
</clipPath>
</defs>
</svg>
