<svg width="24" height="24" viewBox="0 0 24 24" fill="none" xmlns="http://www.w3.org/2000/svg">
<path d="M10 22C10 22 2 13.938 2 9C2 3.938 6.134 1 10 1C13.866 1 18 3.938 18 9C18 10.77 16.972 12.942 15.652 15" stroke="white" stroke-width="1.2" stroke-linecap="round" stroke-linejoin="round"/>
<path d="M13 19L15 21L20 16" stroke="white" stroke-width="1.2" stroke-linecap="round" stroke-linejoin="round"/>
<path d="M10 12C11.6569 12 13 10.6569 13 9C13 7.34315 11.6569 6 10 6C8.34315 6 7 7.34315 7 9C7 10.6569 8.34315 12 10 12Z" stroke="white" stroke-width="1.2" stroke-linecap="round" stroke-linejoin="round"/>
</svg>
