<svg width="24" height="24" viewBox="0 0 24 24" fill="none" xmlns="http://www.w3.org/2000/svg">
<g clip-path="url(#clip0_236_3700)">
<path d="M14.308 15.1909L12.167 17.2999C11.0506 16.6262 10.0134 15.8292 9.07498 14.9239C8.17141 13.9849 7.37486 12.9486 6.69998 11.8339L8.80998 9.69288C8.9366 9.56342 9.02211 9.39941 9.05574 9.22147C9.08937 9.04353 9.06962 8.85962 8.99898 8.69288L6.79998 3.55988C6.71307 3.35768 6.55641 3.19343 6.35854 3.09707C6.16067 3.0007 5.93476 2.97863 5.72198 3.03488L1.68798 4.09988C1.48602 4.15222 1.30787 4.27172 1.18283 4.43874C1.0578 4.60576 0.993311 4.81035 0.999982 5.01888C1.2569 9.7103 3.20765 14.1491 6.48998 17.5109C9.85296 20.7937 14.2933 22.7442 18.986 22.9999C19.1943 23.0065 19.3986 22.9419 19.5652 22.8168C19.7319 22.6918 19.851 22.5137 19.903 22.3119L20.969 18.2759C21.0255 18.0632 21.0037 17.8373 20.9075 17.6394C20.8113 17.4415 20.6471 17.2848 20.445 17.1979L15.316 14.9999C15.1481 14.9276 14.9624 14.9072 14.7828 14.9412C14.6032 14.9753 14.4378 15.0622 14.308 15.1909V15.1909Z" stroke="white" stroke-width="1.2" stroke-linecap="round" stroke-linejoin="round"/>
<path d="M14 1C16.3869 1 18.6761 1.94821 20.364 3.63604C22.0518 5.32387 23 7.61305 23 10" stroke="white" stroke-width="1.2" stroke-linecap="round" stroke-linejoin="round"/>
<path d="M14 5C15.3261 5 16.5979 5.52678 17.5355 6.46447C18.4732 7.40215 19 8.67392 19 10" stroke="white" stroke-width="1.2" stroke-linecap="round" stroke-linejoin="round"/>
</g>
<defs>
<clipPath id="clip0_236_3700">
<rect width="24" height="24" fill="white"/>
</clipPath>
</defs>
</svg>
