<svg width="32" height="32" viewBox="0 0 32 32" fill="none" xmlns="http://www.w3.org/2000/svg">
<path d="M31 30H6V12L14 4H27C28.0609 4 29.0783 4.42143 29.8284 5.17157C30.5786 5.92172 31 6.93913 31 8V30Z" stroke="white" stroke-width="2" stroke-linecap="round" stroke-linejoin="round"/>
<path d="M1 2.00002C2.16671 1.98629 3.31983 2.25135 4.36344 2.77315C5.40704 3.29495 6.31096 4.05841 7 5.00002" stroke="white" stroke-width="2" stroke-linecap="round" stroke-linejoin="round"/>
<path d="M25 8H18C16.8954 8 16 8.89543 16 10C16 11.1046 16.8954 12 18 12H25C26.1046 12 27 11.1046 27 10C27 8.89543 26.1046 8 25 8Z" stroke="white" stroke-width="2" stroke-linecap="round" stroke-linejoin="round"/>
</svg>
