<svg width="181" height="128" viewBox="0 0 181 128" fill="none" xmlns="http://www.w3.org/2000/svg">
<path d="M143.186 47.5511C142.822 43.6101 143.1 32.8969 153.363 17.9994C154.14 16.8752 153.999 15.3591 153.035 14.3953C148.851 10.211 146.26 7.57071 144.443 5.72309C142.054 3.28695 140.963 2.17691 139.367 0.729474C138.301 -0.228696 136.688 -0.245381 135.61 0.693839C117.722 16.2596 97.8533 48.4238 100.728 87.8298C102.413 110.968 119.291 127.763 140.858 127.763C162.991 127.763 180.998 109.759 180.998 87.6253C180.998 66.2735 164.24 48.7635 143.186 47.5511ZM140.858 122.107C122.337 122.107 107.835 107.519 106.368 87.4211C106.368 87.4211 106.368 87.4211 106.368 87.4183C103.134 43.099 129.479 14.3124 137.439 6.68975C138.215 7.45476 139.102 8.35495 140.408 9.68614C141.982 11.288 144.136 13.4809 147.395 16.7511C134.937 35.9459 137.287 49.6224 138.317 51.5834C138.806 52.5141 139.809 53.1411 140.858 53.1411C159.873 53.1411 175.342 68.6101 175.342 87.6253C175.342 106.638 159.873 122.107 140.858 122.107Z" fill="white" fill-opacity="0.05"/>
<path d="M42.7435 47.5508C42.3761 43.6209 42.6468 32.9159 52.9208 17.9992C53.6943 16.875 53.556 15.3589 52.5922 14.395C48.4161 10.219 45.8284 7.58152 44.0139 5.73391C41.6168 3.29238 40.5229 2.17924 38.9267 0.729256C37.8605 -0.228914 36.2476 -0.242772 35.1706 0.690793C17.2822 16.2565 -2.58937 48.4154 0.280048 87.8296V87.8324C1.97042 110.968 18.8506 127.763 40.4179 127.763C62.5514 127.763 80.5586 109.759 80.5586 87.6251C80.5586 66.2708 63.7997 48.7579 42.7435 47.5508ZM40.4179 122.107C21.8999 122.107 7.38911 107.519 5.91989 87.4181V87.4209C2.69413 43.0906 29.0393 14.3093 36.9987 6.68953C37.7776 7.45454 38.667 8.36039 39.9762 9.69441C41.5475 11.2963 43.6991 13.4864 46.9526 16.7509C34.4939 35.9485 36.8443 49.6222 37.8743 51.5804C38.3633 52.5111 39.3684 53.1409 40.4179 53.1409C59.4334 53.1409 74.9024 68.6099 74.9024 87.6251C74.9024 106.638 59.4334 122.107 40.4179 122.107Z" fill="white" fill-opacity="0.05"/>
</svg>
