<svg width="1190" height="392" viewBox="0 0 1190 392" fill="none" xmlns="http://www.w3.org/2000/svg">
<mask id="mask0_496_2237" style="mask-type:alpha" maskUnits="userSpaceOnUse" x="50" y="46" width="1140" height="292">
<path d="M50 61C50 52.7157 56.7157 46 65 46L1175 46C1183.28 46 1190 52.7157 1190 61V323C1190 331.284 1183.28 338 1175 338H65C56.7157 338 50 331.284 50 323V61Z" fill="white"/>
</mask>
<g mask="url(#mask0_496_2237)">
<path opacity="0.4" d="M-18.7253 19.8697C-18.7253 153.017 284.42 242.516 284.42 242.516V285.157L420 182.003L284.42 78.897V120.053C214.397 112.004 165.798 87.9044 132.783 73.2434C129.563 71.8061 126.343 70.3687 123.209 68.7876C120.633 67.5898 118.057 66.392 115.567 64.9547C113.292 63.7569 111.145 62.5591 108.998 61.3613C108.354 61.1217 107.71 60.7384 107.066 60.1635C92.4265 52.0185 78.6881 42.532 66.4095 32.5663C52.1989 21.1633 39.9632 9.18536 30.1746 -2.36138C18.6688 -16.0641 10.5975 -28.9045 5.31683 -38.3431C-9.83827 -21.1907 -18.7682 -1.88226 -18.7682 19.8697H-18.7253Z" fill="black" fill-opacity="0.28"/>
</g>
</svg>
